<?xml version="1.0" encoding="UTF-8" standalone="no"?>
<svg
   xmlns:dc="http://purl.org/dc/elements/1.1/"
   xmlns:cc="http://creativecommons.org/ns#"
   xmlns:rdf="http://www.w3.org/1999/02/22-rdf-syntax-ns#"
   xmlns:svg="http://www.w3.org/2000/svg"
   xmlns="http://www.w3.org/2000/svg"
   xmlns:sodipodi="http://sodipodi.sourceforge.net/DTD/sodipodi-0.dtd"
   xmlns:inkscape="http://www.inkscape.org/namespaces/inkscape"
   inkscape:version="1.0beta2 (2b71d25, 2019-12-03)"
   sodipodi:docname="water-material-ui.svg"
   id="svg14"
   version="1.1"
   aria-hidden="true"
   viewBox="0 0 24 24"
   focusable="false"
   class="MuiSvgIcon-root jss174">
  <metadata
     id="metadata20">
    <rdf:RDF>
      <cc:Work
         rdf:about="">
        <dc:format>image/svg+xml</dc:format>
        <dc:type
           rdf:resource="http://purl.org/dc/dcmitype/StillImage" />
      </cc:Work>
    </rdf:RDF>
  </metadata>
  <defs
     id="defs18" />
  <sodipodi:namedview
     inkscape:current-layer="svg14"
     inkscape:window-maximized="0"
     inkscape:window-y="0"
     inkscape:window-x="0"
     inkscape:cy="12"
     inkscape:cx="12"
     inkscape:zoom="22.458333"
     showgrid="true"
     id="namedview16"
     inkscape:window-height="800"
     inkscape:window-width="1280"
     inkscape:pageshadow="2"
     inkscape:pageopacity="0"
     guidetolerance="10"
     gridtolerance="10"
     objecttolerance="10"
     borderopacity="1"
     inkscape:document-rotation="0"
     bordercolor="#666666"
     pagecolor="#ffffff">
    <inkscape:grid
       id="grid46"
       type="xygrid" />
  </sodipodi:namedview>
  <path
     inkscape:connector-curvature="0"
     id="path24"
     d="m 22,15.743041 c -1.11,0 -1.73,-0.37 -2.18,-0.64 -0.37,-0.22 -0.6,-0.36 -1.15,-0.36 -0.56,0 -0.78,0.13 -1.15,0.36 -0.45,0.27 -1.07,0.64 -2.18,0.64 -1.11,0 -1.73,-0.37 -2.18,-0.64 -0.37,-0.22 -0.6,-0.36 -1.15,-0.36 -0.56,0 -0.78,0.13 -1.15,0.36 -0.45,0.27 -1.07,0.64 -2.18,0.64 -1.11,0 -1.73,-0.37 -2.18,-0.64 -0.37,-0.22 -0.6,-0.36 -1.15,-0.36 -0.55,0 -0.78,0.13 -1.15,0.36 -0.47,0.27 -1.09,0.64 -2.2,0.64 v -2 c 0.56,0 0.78,-0.13 1.15,-0.36 0.45,-0.27 1.07,-0.64 2.18,-0.64 1.11,0 1.73,0.37 2.18,0.64 0.37,0.22 0.6,0.36 1.15,0.36 0.56,0 0.78,-0.13 1.15,-0.36 0.45,-0.27 1.07,-0.64 2.18,-0.64 1.11,0 1.73,0.37 2.18,0.64 0.37,0.22 0.6,0.36 1.15,0.36 0.55,0 0.78,-0.13 1.15,-0.36 0.45,-0.27 1.07,-0.64 2.18,-0.64 1.11,0 1.73,0.37 2.18,0.64 0.37,0.22 0.6,0.36 1.15,0.36 v 2 z" />
  <path
     inkscape:connector-curvature="0"
     id="path10"
     d="m 22,20.243041 c -1.11,0 -1.73,-0.37 -2.18,-0.64 -0.37,-0.22 -0.6,-0.36 -1.15,-0.36 -0.56,0 -0.78,0.13 -1.15,0.36 -0.46,0.27 -1.07,0.64 -2.18,0.64 -1.11,0 -1.73,-0.37 -2.18,-0.64 -0.37,-0.22 -0.6,-0.36 -1.15,-0.36 -0.56,0 -0.78,0.13 -1.15,0.36 -0.46,0.27 -1.08,0.64 -2.19,0.64 -1.11,0 -1.73,-0.37 -2.18,-0.64 -0.37,-0.23 -0.6,-0.36 -1.15,-0.36 -0.55,0 -0.78,0.13 -1.15,0.36 -0.46,0.27 -1.08,0.64 -2.19,0.64 v -2 c 0.56,0 0.78,-0.13 1.15,-0.36 0.46,-0.27 1.08,-0.64 2.19,-0.64 1.11,0 1.73,0.37 2.18,0.64 0.37,0.23 0.59,0.36 1.15,0.36 0.56,0 0.78,-0.13 1.15,-0.36 0.46,-0.27 1.08,-0.64 2.19,-0.64 1.11,0 1.73,0.37 2.18,0.64 0.37,0.22 0.6,0.36 1.15,0.36 0.55,0 0.78,-0.13 1.15,-0.36 0.45,-0.27 1.07,-0.64 2.18,-0.64 1.11,0 1.73,0.37 2.18,0.64 0.37,0.23 0.59,0.36 1.15,0.36 z" />
  <path
     inkscape:connector-curvature="0"
     d="m 21.970316,6.7342297 c -1.11,0 -1.73,-0.37 -2.18,-0.64 -0.37,-0.22 -0.6,-0.36 -1.15,-0.36 -0.56,0 -0.78,0.13 -1.15,0.36 -0.45,0.27 -1.07,0.64 -2.18,0.64 -1.11,0 -1.73,-0.37 -2.18,-0.64 -0.37,-0.22 -0.6,-0.36 -1.15,-0.36 -0.56,0 -0.78,0.13 -1.15,0.36 -0.45,0.27 -1.07,0.64 -2.18,0.64 -1.11,0 -1.73,-0.37 -2.18,-0.64 -0.37,-0.22 -0.6,-0.36 -1.15,-0.36 -0.55,0 -0.78,0.13 -1.15,0.36 -0.47,0.27 -1.09,0.64 -2.2,0.64 v -2 c 0.56,0 0.78,-0.13 1.15,-0.36 0.45,-0.27 1.07,-0.64 2.18,-0.64 1.11,0 1.73,0.37 2.18,0.64 0.37,0.22 0.6,0.36 1.15,0.36 0.56,0 0.78,-0.13 1.15,-0.36 0.45,-0.27 1.07,-0.64 2.18,-0.64 1.11,0 1.73,0.37 2.18,0.64 0.37,0.22 0.6,0.36 1.15,0.36 0.55,0 0.78,-0.13 1.15,-0.36 0.45,-0.27 1.07,-0.64 2.18,-0.64 1.11,0 1.73,0.37 2.18,0.64 0.37,0.22 0.6,0.36 1.15,0.36 v 2 z"
     id="path24-4" />
  <path
     inkscape:connector-curvature="0"
     d="m 21.970316,11.234231 c -1.11,0 -1.73,-0.37 -2.18,-0.64 -0.37,-0.22 -0.6,-0.36 -1.15,-0.36 -0.56,0 -0.78,0.13 -1.15,0.36 -0.46,0.27 -1.07,0.64 -2.18,0.64 -1.11,0 -1.73,-0.37 -2.18,-0.64 -0.37,-0.22 -0.6,-0.36 -1.15,-0.36 -0.56,0 -0.78,0.13 -1.15,0.36 -0.46,0.27 -1.08,0.64 -2.19,0.64 -1.11,0 -1.73,-0.37 -2.18,-0.64 -0.37,-0.23 -0.6,-0.36 -1.15,-0.36 -0.55,0 -0.78,0.13 -1.15,0.36 -0.46,0.27 -1.08,0.64 -2.19,0.64 V 9.2342307 c 0.56,0 0.78,-0.13 1.15,-0.36 0.46,-0.27 1.08,-0.640001 2.19,-0.640001 1.11,0 1.73,0.370001 2.18,0.640001 0.37,0.23 0.59,0.36 1.15,0.36 0.56,0 0.78,-0.13 1.15,-0.36 0.46,-0.27 1.08,-0.640001 2.19,-0.640001 1.11,0 1.73,0.370001 2.18,0.640001 0.37,0.22 0.6,0.36 1.15,0.36 0.55,0 0.78,-0.13 1.15,-0.36 0.45,-0.27 1.07,-0.640001 2.18,-0.640001 1.11,0 1.73,0.370001 2.18,0.640001 0.37,0.23 0.59,0.36 1.15,0.36 z"
     id="path10-8" />
</svg>
