<?xml version="1.0" encoding="UTF-8"?>
<svg class="MuiSvgIcon-root jss174" aria-hidden="true" focusable="false" version="1.1" viewBox="0 0 24 24" xmlns="http://www.w3.org/2000/svg" xmlns:cc="http://creativecommons.org/ns#" xmlns:dc="http://purl.org/dc/elements/1.1/" xmlns:rdf="http://www.w3.org/1999/02/22-rdf-syntax-ns#">
 <metadata>
  <rdf:RDF>
   <cc:Work rdf:about="">
    <dc:format>image/svg+xml</dc:format>
    <dc:type rdf:resource="http://purl.org/dc/dcmitype/StillImage"/>
    <dc:title/>
   </cc:Work>
  </rdf:RDF>
 </metadata>
 <path d="m22 15.743c-1.11 0-1.73-0.37-2.18-0.64-0.37-0.22-0.6-0.36-1.15-0.36-0.56 0-0.78 0.13-1.15 0.36-0.45 0.27-1.07 0.64-2.18 0.64s-1.73-0.37-2.18-0.64c-0.37-0.22-0.6-0.36-1.15-0.36-0.56 0-0.78 0.13-1.15 0.36-0.45 0.27-1.07 0.64-2.18 0.64s-1.73-0.37-2.18-0.64c-0.37-0.22-0.6-0.36-1.15-0.36s-0.78 0.13-1.15 0.36c-0.47 0.27-1.09 0.64-2.2 0.64v-2c0.56 0 0.78-0.13 1.15-0.36 0.45-0.27 1.07-0.64 2.18-0.64s1.73 0.37 2.18 0.64c0.37 0.22 0.6 0.36 1.15 0.36 0.56 0 0.78-0.13 1.15-0.36 0.45-0.27 1.07-0.64 2.18-0.64s1.73 0.37 2.18 0.64c0.37 0.22 0.6 0.36 1.15 0.36s0.78-0.13 1.15-0.36c0.45-0.27 1.07-0.64 2.18-0.64s1.73 0.37 2.18 0.64c0.37 0.22 0.6 0.36 1.15 0.36v2z"/>
 <path d="m22 20.243c-1.11 0-1.73-0.37-2.18-0.64-0.37-0.22-0.6-0.36-1.15-0.36-0.56 0-0.78 0.13-1.15 0.36-0.46 0.27-1.07 0.64-2.18 0.64s-1.73-0.37-2.18-0.64c-0.37-0.22-0.6-0.36-1.15-0.36-0.56 0-0.78 0.13-1.15 0.36-0.46 0.27-1.08 0.64-2.19 0.64s-1.73-0.37-2.18-0.64c-0.37-0.23-0.6-0.36-1.15-0.36s-0.78 0.13-1.15 0.36c-0.46 0.27-1.08 0.64-2.19 0.64v-2c0.56 0 0.78-0.13 1.15-0.36 0.46-0.27 1.08-0.64 2.19-0.64s1.73 0.37 2.18 0.64c0.37 0.23 0.59 0.36 1.15 0.36s0.78-0.13 1.15-0.36c0.46-0.27 1.08-0.64 2.19-0.64s1.73 0.37 2.18 0.64c0.37 0.22 0.6 0.36 1.15 0.36s0.78-0.13 1.15-0.36c0.45-0.27 1.07-0.64 2.18-0.64s1.73 0.37 2.18 0.64c0.37 0.23 0.59 0.36 1.15 0.36z"/>
 <path d="m21.97 6.7342c-1.11 0-1.73-0.37-2.18-0.64-0.37-0.22-0.6-0.36-1.15-0.36-0.56 0-0.78 0.13-1.15 0.36-0.45 0.27-1.07 0.64-2.18 0.64s-1.73-0.37-2.18-0.64c-0.37-0.22-0.6-0.36-1.15-0.36-0.56 0-0.78 0.13-1.15 0.36-0.45 0.27-1.07 0.64-2.18 0.64s-1.73-0.37-2.18-0.64c-0.37-0.22-0.6-0.36-1.15-0.36s-0.78 0.13-1.15 0.36c-0.47 0.27-1.09 0.64-2.2 0.64v-2c0.56 0 0.78-0.13 1.15-0.36 0.45-0.27 1.07-0.64 2.18-0.64s1.73 0.37 2.18 0.64c0.37 0.22 0.6 0.36 1.15 0.36 0.56 0 0.78-0.13 1.15-0.36 0.45-0.27 1.07-0.64 2.18-0.64s1.73 0.37 2.18 0.64c0.37 0.22 0.6 0.36 1.15 0.36s0.78-0.13 1.15-0.36c0.45-0.27 1.07-0.64 2.18-0.64s1.73 0.37 2.18 0.64c0.37 0.22 0.6 0.36 1.15 0.36v2z"/>
 <path d="m21.97 11.234c-1.11 0-1.73-0.37-2.18-0.64-0.37-0.22-0.6-0.36-1.15-0.36-0.56 0-0.78 0.13-1.15 0.36-0.46 0.27-1.07 0.64-2.18 0.64s-1.73-0.37-2.18-0.64c-0.37-0.22-0.6-0.36-1.15-0.36-0.56 0-0.78 0.13-1.15 0.36-0.46 0.27-1.08 0.64-2.19 0.64s-1.73-0.37-2.18-0.64c-0.37-0.23-0.6-0.36-1.15-0.36s-0.78 0.13-1.15 0.36c-0.46 0.27-1.08 0.64-2.19 0.64v-2c0.56 0 0.78-0.13 1.15-0.36 0.46-0.27 1.08-0.64 2.19-0.64s1.73 0.37 2.18 0.64c0.37 0.23 0.59 0.36 1.15 0.36s0.78-0.13 1.15-0.36c0.46-0.27 1.08-0.64 2.19-0.64s1.73 0.37 2.18 0.64c0.37 0.22 0.6 0.36 1.15 0.36s0.78-0.13 1.15-0.36c0.45-0.27 1.07-0.64 2.18-0.64s1.73 0.37 2.18 0.64c0.37 0.23 0.59 0.36 1.15 0.36z"/>
</svg>
