<?xml version="1.0" standalone="no"?>
<!DOCTYPE svg PUBLIC "-//W3C//DTD SVG 20010904//EN"
 "http://www.w3.org/TR/2001/REC-SVG-20010904/DTD/svg10.dtd">
<svg version="1.0" xmlns="http://www.w3.org/2000/svg"
 width="128.000000pt" height="128.000000pt" viewBox="0 0 128.000000 128.000000"
 preserveAspectRatio="xMidYMid meet">

<g transform="translate(0.000000,128.000000) scale(0.100000,-0.100000)"
fill="#00ff99" stroke="none">
<path d="M3 1250 c-1 -17 2 -30 7 -30 6 0 10 -5 10 -11 0 -5 -4 -7 -10 -4 -5
3 -10 -3 -10 -14 0 -12 5 -21 10 -21 6 0 10 -9 10 -21 0 -12 -4 -17 -11 -13
-7 4 -9 -1 -7 -12 2 -11 11 -18 21 -16 23 4 22 -7 -3 -28 -15 -13 -19 -27 -17
-61 2 -24 6 -50 11 -57 4 -6 2 -12 -3 -12 -6 0 -11 -9 -11 -20 0 -11 5 -20 10
-20 6 0 10 -7 10 -15 0 -8 -4 -15 -10 -15 -12 0 -8 -43 5 -52 6 -5 5 -8 -2 -8
-9 0 -12 -17 -10 -55 1 -30 5 -55 10 -55 4 0 7 -5 7 -11 0 -5 -4 -7 -10 -4 -5
3 -10 -3 -10 -14 0 -12 5 -21 10 -21 6 0 10 -9 10 -21 0 -11 -4 -17 -10 -14
-13 8 -13 -15 0 -35 8 -12 10 -12 10 -1 0 8 2 12 5 9 9 -9 -7 -38 -17 -32 -11
7 -5 -106 7 -126 5 -9 4 -11 -3 -6 -19 11 -14 -23 5 -42 16 -16 16 -17 0 -20
-16 -3 -25 -33 -9 -31 20 3 30 -3 40 -26 15 -33 15 -35 -4 -35 -10 0 -14 6
-11 14 5 14 -10 36 -25 36 -5 0 -7 -29 -6 -65 2 -36 6 -65 11 -65 4 0 7 -5 7
-11 0 -5 -4 -7 -10 -4 -16 10 -12 -23 6 -50 15 -23 15 -25 -1 -25 -12 0 -15
-5 -11 -16 3 -9 6 -18 6 -20 0 -3 4 -2 10 1 5 3 10 1 10 -5 0 -6 -7 -13 -15
-16 -8 -4 -15 -16 -15 -29 0 -20 4 -22 50 -21 33 1 54 6 60 16 8 13 11 12 24
-5 12 -15 18 -17 24 -7 7 10 15 10 37 2 20 -8 31 -7 43 2 9 7 13 8 9 2 -4 -8
12 -11 54 -10 41 1 63 6 69 16 8 12 10 12 16 -3 3 -9 13 -17 21 -17 8 0 11 5
7 12 -5 8 -2 9 12 3 10 -4 56 -9 101 -11 62 -2 84 1 94 12 10 12 14 12 26 -3
10 -12 16 -14 19 -6 3 7 14 9 34 3 15 -4 60 -8 99 -8 55 1 74 5 81 17 8 14 9
14 15 -2 4 -9 14 -17 22 -17 8 0 11 5 7 11 -4 7 1 9 15 5 11 -3 30 -9 41 -12
14 -4 20 -1 20 11 0 9 5 13 10 10 6 -4 8 -10 6 -14 -10 -15 109 -8 120 7 9 13
12 13 17 -2 4 -9 14 -16 22 -16 9 0 13 5 9 11 -6 10 10 8 54 -8 6 -3 12 2 12
11 0 9 6 13 14 10 12 -5 15 13 15 100 0 69 -4 106 -11 106 -7 0 -7 4 0 13 14
17 14 230 0 238 -7 4 -7 13 0 25 14 27 14 227 0 236 -9 5 -8 11 1 22 11 13 11
16 -3 16 -9 0 -16 4 -16 10 0 5 6 9 13 7 16 -3 22 184 6 194 -8 4 -8 13 -1 25
13 27 15 234 1 234 -6 0 -9 7 -5 15 7 20 -22 20 -46 -1 -16 -16 -18 -15 -24 0
-5 14 -18 17 -65 15 -32 -1 -58 -5 -57 -8 2 -20 -5 -22 -24 -5 -19 17 -21 17
-15 2 5 -13 1 -18 -13 -18 -13 0 -18 5 -14 15 8 20 -29 20 -47 -1 -11 -14 -13
-14 -21 0 -7 12 -24 16 -63 16 -48 0 -55 -2 -55 -20 0 -11 -4 -20 -9 -20 -5 0
-11 9 -14 20 -3 11 -11 20 -17 20 -7 0 -10 -7 -6 -15 3 -9 0 -15 -10 -15 -10
0 -14 6 -10 15 4 11 -2 15 -20 15 -14 0 -27 -7 -31 -16 -6 -15 -7 -15 -19 0
-9 13 -24 16 -65 14 -47 -3 -54 -6 -59 -27 l-5 -24 -14 29 c-11 23 -15 25 -18
12 -3 -10 -11 -18 -20 -18 -9 0 -13 6 -9 15 7 20 -27 20 -45 -1 -11 -13 -13
-14 -21 0 -11 20 -104 20 -112 0 -7 -19 -26 -18 -26 1 0 8 -7 15 -16 15 -10 0
-14 -6 -10 -15 4 -10 -1 -15 -16 -15 -17 0 -18 2 -8 15 11 13 9 15 -13 15 -13
0 -30 -7 -38 -16 -11 -14 -13 -14 -21 0 -6 11 -24 16 -59 16 -42 0 -51 -3 -58
-22 l-8 -22 -12 22 c-16 30 -26 28 -28 -8z m147 -1 c0 -5 -4 -9 -10 -9 -5 0
-10 7 -10 16 0 8 5 12 10 9 6 -3 10 -10 10 -16z m770 12 c0 -6 -4 -13 -10 -16
-5 -3 -10 1 -10 9 0 9 5 16 10 16 6 0 10 -4 10 -9z m256 -10 c-4 -6 -13 -8
-21 -5 -8 4 -18 -1 -21 -10 -3 -9 -10 -13 -15 -10 -18 11 -8 24 24 32 35 10
42 8 33 -7z m-1056 0 c0 -5 -6 -14 -14 -20 -10 -9 -15 -8 -19 3 -3 8 -1 17 6
20 19 7 27 7 27 -3z m100 -23 c0 -5 -7 -8 -15 -8 -17 0 -18 2 -9 25 5 13 8 14
15 3 5 -7 9 -16 9 -20z m149 11 c-8 -16 -14 -18 -22 -10 -9 9 -8 14 3 21 24
16 31 11 19 -11z m255 -3 c-5 -13 -9 -14 -21 -4 -13 10 -13 13 4 19 23 8 25 6
17 -15z m46 20 c0 -11 -19 -15 -25 -6 -3 5 1 10 9 10 9 0 16 -2 16 -4z m206
-22 c-5 -14 -9 -15 -19 -5 -9 9 -9 14 3 21 18 11 24 6 16 -16z m98 -7 c-21
-12 -30 -1 -14 18 10 13 15 13 21 3 5 -8 2 -16 -7 -21z m-501 8 c0 -6 -7 -11
-16 -13 -12 -3 -15 1 -11 13 7 17 25 17 27 0z m257 -6 c0 -5 -8 -9 -17 -8 -11
0 -13 3 -5 6 6 2 9 10 6 15 -4 7 -2 8 4 4 7 -4 12 -11 12 -17z m510 0 c0 -5
-7 -9 -15 -9 -15 0 -20 12 -9 23 8 8 24 -1 24 -14z m-1160 -26 c0 -7 -9 -13
-20 -13 -23 0 -24 4 -9 32 9 17 13 18 20 7 5 -8 9 -20 9 -26z m260 0 c0 -7 -9
-13 -20 -13 -22 0 -26 20 -8 38 13 13 28 -1 28 -25z m253 7 c4 -16 0 -20 -19
-20 -27 0 -29 3 -12 29 14 23 23 20 31 -9z m257 -7 c0 -7 -9 -13 -20 -13 -23
0 -24 4 -9 32 9 17 13 18 20 7 5 -8 9 -20 9 -26z m250 28 c0 -5 3 -16 6 -25 4
-12 0 -16 -15 -16 -22 0 -25 8 -15 34 7 17 24 22 24 7z m-820 -10 c0 -6 -4
-13 -10 -16 -5 -3 -10 1 -10 9 0 9 5 16 10 16 6 0 10 -4 10 -9z m733 -11 c-5
-20 -33 -29 -33 -10 0 7 25 27 37 30 0 0 -1 -9 -4 -20z m-860 -10 c-6 -22 -11
-24 -33 -10 -13 9 -13 11 0 20 24 16 39 12 33 -10z m81 -8 c-22 -5 -31 7 -14
18 9 6 17 5 22 -3 4 -7 1 -13 -8 -15z m176 10 c0 -27 -10 -33 -28 -16 -13 14
-13 17 -1 25 21 13 29 11 29 -9z m90 3 c0 -8 -7 -15 -15 -15 -16 0 -20 12 -8
23 11 12 23 8 23 -8z m40 11 c0 -3 -4 -8 -10 -11 -5 -3 -10 -1 -10 4 0 6 5 11
10 11 6 0 10 -2 10 -4z m130 -3 c0 -5 -4 -14 -9 -22 -8 -12 -12 -13 -26 -1
-13 10 -13 15 -3 21 16 11 38 11 38 2z m74 -21 c-22 -5 -31 7 -14 18 9 6 17 5
22 -3 4 -7 1 -13 -8 -15z m179 4 c-4 -22 -8 -23 -24 -13 -22 14 -24 23 -6 30
26 11 34 6 30 -17z m127 20 c0 -3 -4 -8 -10 -11 -5 -3 -10 -1 -10 4 0 6 5 11
10 11 6 0 10 -2 10 -4z m126 -12 c-3 -9 -6 -20 -6 -25 0 -5 -9 -4 -20 3 -25
16 -25 25 -2 31 31 8 34 7 28 -9z m94 1 c0 -8 -7 -15 -15 -15 -16 0 -20 12 -8
23 11 12 23 8 23 -8z m-50 -30 c0 -16 -6 -25 -15 -25 -18 0 -18 5 -5 31 14 26
20 24 20 -6z m-1025 -13 c-2 -9 -4 -19 -4 -21 -1 -3 -6 0 -12 6 -13 13 -4 47
10 39 5 -4 8 -14 6 -24z m251 -20 c-4 -3 -11 -1 -17 5 -8 8 -8 15 2 26 12 13
14 13 17 -5 2 -11 1 -22 -2 -26z m-386 12 c0 -8 -4 -14 -10 -14 -5 0 -10 9
-10 21 0 11 5 17 10 14 6 -3 10 -13 10 -21z m320 5 c0 -5 -7 -9 -15 -9 -8 0
-15 7 -15 15 0 9 6 12 15 9 8 -4 15 -10 15 -15z m110 0 c0 -5 -4 -9 -10 -9 -5
0 -10 7 -10 16 0 8 5 12 10 9 6 -3 10 -10 10 -16z m130 6 c0 -8 -4 -15 -10
-15 -5 0 -7 7 -4 15 4 8 8 15 10 15 2 0 4 -7 4 -15z m79 -14 c-15 -5 -22 6
-14 19 6 9 10 9 16 -1 5 -8 4 -15 -2 -18z m91 -8 c0 -7 -6 -10 -14 -7 -8 3
-12 13 -9 25 5 16 8 18 14 7 5 -7 9 -18 9 -25z m85 27 c-3 -5 -1 -10 5 -10 6
0 8 -5 5 -10 -4 -6 -11 -8 -16 -5 -12 8 -11 35 2 35 5 0 7 -4 4 -10z m88 -5
c8 -18 -11 -31 -25 -17 -11 11 -3 32 12 32 4 0 10 -7 13 -15z m127 -16 c0 -3
-7 -6 -15 -6 -17 0 -17 0 -9 22 5 13 8 14 15 3 5 -7 9 -16 9 -19z m43 6 c-7
-21 -13 -19 -13 6 0 11 4 18 10 14 5 -3 7 -12 3 -20z m-1013 6 c0 -6 -4 -13
-10 -16 -5 -3 -10 1 -10 9 0 9 5 16 10 16 6 0 10 -4 10 -9z m110 -1 c0 -5 -4
-10 -10 -10 -5 0 -10 5 -10 10 0 6 5 10 10 10 6 0 10 -4 10 -10z m50 -22 c0
-3 -9 -4 -20 -1 -16 4 -18 8 -9 20 10 11 14 11 20 1 5 -7 9 -16 9 -20z m40 11
c0 -5 -4 -9 -10 -9 -5 0 -10 7 -10 16 0 8 5 12 10 9 6 -3 10 -10 10 -16z m213
1 c6 -22 5 -23 -17 -14 -8 3 -12 12 -9 20 7 20 20 17 26 -6z m28 -3 c-10 -9
-11 -8 -5 6 3 10 9 15 12 12 3 -3 0 -11 -7 -18z m269 8 c0 -8 -7 -15 -15 -15
-9 0 -12 6 -9 15 4 8 10 15 15 15 5 0 9 -7 9 -15z m170 5 c0 -5 -4 -10 -10
-10 -5 0 -10 5 -10 10 0 6 5 10 10 10 6 0 10 -4 10 -10z m44 -6 c9 -22 8 -23
-13 -17 -12 3 -17 11 -14 19 7 19 19 18 27 -2z m216 12 c0 -3 -4 -8 -10 -11
-5 -3 -10 -1 -10 4 0 6 5 11 10 11 6 0 10 -2 10 -4z m-513 -12 c-3 -3 -12 -4
-19 -1 -8 3 -5 6 6 6 11 1 17 -2 13 -5z m-667 -38 c0 -8 -4 -18 -10 -21 -5 -3
-10 -4 -10 -1 0 2 -3 11 -6 20 -4 11 -1 16 10 16 9 0 16 -6 16 -14z m92 -1 c0
-5 -5 -11 -11 -13 -6 -2 -11 4 -11 13 0 9 5 15 11 13 6 -2 11 -8 11 -13z m168
11 c0 -15 -14 -35 -21 -30 -15 9 -10 34 6 34 8 0 15 -2 15 -4z m92 -11 c0 -5
-5 -11 -11 -13 -6 -2 -11 4 -11 13 0 9 5 15 11 13 6 -2 11 -8 11 -13z m55 -5
c2 -19 -16 -27 -30 -13 -7 6 11 33 22 33 4 0 7 -9 8 -20z m107 5 c-4 -8 -10
-15 -14 -15 -4 0 -10 7 -14 15 -4 10 1 15 14 15 13 0 18 -5 14 -15z m90 9 c18
-7 12 -24 -10 -24 -8 0 -14 7 -14 15 0 17 2 18 24 9z m56 -14 c0 -11 -7 -20
-15 -20 -8 0 -15 7 -15 16 0 8 5 12 10 9 6 -3 10 -1 10 4 0 6 2 11 5 11 3 0 5
-9 5 -20z m108 0 c-9 -14 -14 -16 -20 -7 -13 20 -9 27 12 27 18 0 19 -3 8 -20z
m94 5 c0 -5 -5 -11 -11 -13 -6 -2 -11 4 -11 13 0 9 5 15 11 13 6 -2 11 -8 11
-13z m55 -22 c-3 -3 -11 -2 -17 2 -8 5 -7 11 2 22 12 15 13 14 16 -1 2 -10 1
-20 -1 -23z m113 30 c0 -5 -4 -14 -9 -22 -7 -11 -11 -9 -20 8 -10 18 -9 21 9
21 11 0 20 -3 20 -7z m84 1 c9 -3 13 -10 10 -15 -8 -14 -21 -11 -28 6 -6 17
-4 18 18 9z m-1064 -25 c0 -5 -7 -9 -15 -9 -15 0 -20 12 -9 23 8 8 24 -1 24
-14z m91 7 c5 3 9 0 9 -5 0 -6 -7 -11 -15 -11 -8 0 -15 8 -14 18 0 10 3 12 6
4 2 -6 9 -10 14 -6z m163 -1 c4 -10 -1 -15 -16 -15 -17 0 -18 2 -8 15 7 8 14
15 15 15 2 0 5 -7 9 -15z m166 -5 c0 -4 -7 -13 -15 -20 -9 -8 -15 -8 -15 -2 0
6 -3 17 -6 25 -4 12 0 14 15 10 12 -3 21 -9 21 -13z m88 7 c8 -10 6 -13 -8
-14 -13 -1 -17 3 -13 13 6 17 8 17 21 1z m161 -14 c1 -1 0 -7 -4 -13 -5 -8
-11 -5 -21 7 -19 25 -17 38 4 22 9 -7 19 -14 21 -16z m99 9 c2 -6 -6 -10 -16
-9 -12 1 -18 6 -15 14 6 16 25 13 31 -5z m148 1 c8 8 33 -22 34 -40 0 -7 -7
-13 -16 -13 -11 0 -14 6 -9 20 4 11 2 20 -4 20 -6 0 -11 -6 -12 -12 0 -7 -4
-4 -9 7 -12 27 -12 43 0 25 5 -8 12 -11 16 -7z m104 2 c0 -8 -4 -15 -8 -15 -5
0 -9 7 -9 15 0 8 4 15 9 15 4 0 8 -7 8 -15z m104 1 c-3 -8 -12 -12 -20 -9 -17
6 -9 23 11 23 8 0 12 -6 9 -14z m-964 -8 c0 -14 -15 -16 -27 -3 -10 11 -9 13
7 12 11 -1 20 -5 20 -9z m-80 -39 c0 -5 -9 -9 -19 -9 -14 0 -18 5 -14 20 4 16
8 18 19 9 8 -6 14 -15 14 -20z m250 5 c0 -8 -7 -14 -15 -14 -15 0 -21 21 -9
33 10 9 24 -2 24 -19z m249 12 c9 -10 8 -15 -4 -20 -10 -4 -15 1 -15 14 0 24
4 25 19 6z m259 -17 c-21 -14 -26 -10 -21 11 4 16 8 18 20 9 11 -10 11 -14 1
-20z m257 11 c0 -7 -6 -15 -12 -17 -8 -3 -13 4 -13 17 0 13 5 20 13 18 6 -3
12 -11 12 -18z m-1165 -11 c0 -5 -7 -9 -15 -9 -15 0 -20 12 -9 23 8 8 24 -1
24 -14z m254 6 c4 -10 -1 -15 -14 -15 -13 0 -18 5 -14 15 4 8 10 15 14 15 4 0
10 -7 14 -15z m106 5 c0 -5 -5 -10 -11 -10 -5 0 -7 5 -4 10 3 6 8 10 11 10 2
0 4 -4 4 -10z m150 -11 c0 -5 -7 -9 -15 -9 -15 0 -20 12 -9 23 8 8 24 -1 24
-14z m40 0 c0 -5 -4 -9 -10 -9 -5 0 -10 7 -10 16 0 8 5 12 10 9 6 -3 10 -10
10 -16z m64 6 c-4 -8 -8 -15 -10 -15 -2 0 -4 7 -4 15 0 8 4 15 10 15 5 0 7 -7
4 -15z m150 0 c3 -9 0 -15 -9 -15 -8 0 -15 7 -15 15 0 8 4 15 9 15 5 0 11 -7
15 -15z m98 -7 c-7 -7 -12 -8 -12 -2 0 14 12 26 19 19 2 -3 -1 -11 -7 -17z
m268 12 c0 -5 -5 -10 -11 -10 -5 0 -7 5 -4 10 3 6 8 10 11 10 2 0 4 -4 4 -10z
m-1030 -10 c0 -5 -5 -10 -11 -10 -5 0 -7 5 -4 10 3 6 8 10 11 10 2 0 4 -4 4
-10z m705 1 c3 -5 1 -12 -5 -16 -5 -3 -10 1 -10 9 0 18 6 21 15 7z m-360 -21
c-3 -5 -1 -11 5 -15 16 -10 12 -35 -6 -35 -11 0 -14 6 -9 20 3 11 2 20 -3 20
-5 0 -9 6 -9 14 0 8 6 12 14 9 7 -3 11 -9 8 -13z m265 5 c0 -2 -7 -5 -15 -9
-9 -3 -15 0 -15 9 0 9 6 12 15 9 8 -4 15 -7 15 -9z m260 0 c0 -11 -29 -11 -33
-1 -4 10 1 12 14 9 10 -3 19 -7 19 -8z m-892 -13 c2 -7 -6 -12 -17 -12 -21 0
-27 11 -14 24 9 9 26 2 31 -12z m106 6 c-3 -4 -9 -8 -15 -8 -5 0 -9 4 -9 8 0
5 7 9 15 9 8 0 12 -4 9 -9z m146 -3 c0 -8 -7 -15 -15 -15 -16 0 -20 12 -8 23
11 12 23 8 23 -8z m258 -3 c2 -7 -3 -12 -12 -12 -9 0 -16 7 -16 16 0 17 22 14
28 -4z m252 3 c0 -8 -7 -15 -15 -15 -9 0 -12 6 -9 15 4 8 10 15 15 15 5 0 9
-7 9 -15z m260 -6 c0 -5 -7 -9 -15 -9 -15 0 -20 12 -9 23 8 8 24 -1 24 -14z
m-962 3 c9 -7 8 -13 -8 -27 -11 -10 -20 -13 -20 -7 0 6 -3 17 -6 26 -7 17 12
21 34 8z m122 -3 c0 -13 -27 -41 -32 -33 -16 30 -14 39 8 39 13 0 24 -3 24 -6z
m135 1 c3 -6 0 -17 -8 -24 -12 -13 -16 -12 -25 10 -10 21 -9 24 8 24 10 0 22
-5 25 -10z m100 0 c4 -6 11 -8 16 -5 5 4 9 1 9 -4 0 -6 -4 -11 -10 -11 -5 0
-10 -8 -10 -17 0 -21 -15 -6 -25 25 -6 22 8 31 20 12z m153 1 c10 -6 10 -11
-3 -21 -14 -12 -18 -11 -26 1 -17 28 -1 40 29 20z m122 -10 c0 -3 -4 -12 -9
-19 -6 -10 -10 -10 -20 2 -15 18 -6 37 14 29 8 -3 15 -8 15 -12z m140 5 c0 -7
-6 -19 -14 -25 -11 -9 -15 -8 -20 5 -10 26 -7 34 14 34 11 0 20 -6 20 -14z
m244 8 c12 -5 13 -9 3 -25 -6 -10 -16 -19 -21 -19 -5 0 -6 3 -3 6 3 4 2 15 -4
25 -10 20 -3 24 25 13z m-1154 -11 c0 -5 -4 -14 -9 -22 -7 -11 -11 -9 -20 8
-10 18 -9 21 9 21 11 0 20 -3 20 -7z m203 -13 c4 -15 0 -20 -14 -20 -17 0 -18
3 -9 20 6 11 12 20 14 20 2 0 6 -9 9 -20z m517 -12 c0 -4 -9 -6 -19 -5 -16 1
-18 5 -9 20 8 16 12 17 19 6 5 -8 9 -17 9 -21z m250 12 c0 -11 -7 -20 -15 -20
-18 0 -19 12 -3 28 16 16 18 15 18 -8z m48 -6 c-11 -23 -13 -24 -19 -7 -12 29
-10 33 11 33 17 0 18 -3 8 -26z m-938 -1 c-8 -3 -20 -12 -27 -20 -11 -15 -33
-10 -33 7 0 8 28 17 60 18 13 0 13 0 0 -5z m268 -4 c-2 -6 -8 -10 -13 -10 -5
0 -11 4 -13 10 -2 6 4 11 13 11 9 0 15 -5 13 -11z m248 -16 c-10 -10 -19 5
-10 18 6 11 8 11 12 0 2 -7 1 -15 -2 -18z m262 16 c-2 -6 -8 -10 -13 -10 -5 0
-11 4 -13 10 -2 6 4 11 13 11 9 0 15 -5 13 -11z m262 2 c0 -17 -18 -21 -24 -6
-3 9 0 15 9 15 8 0 15 -4 15 -9z m-976 -34 c-21 -12 -29 -2 -13 16 10 11 16
12 21 4 4 -7 0 -16 -8 -20z m166 24 c0 -9 -20 -37 -20 -29 0 3 -2 13 -5 21 -4
8 0 14 10 14 8 0 15 -3 15 -6z m103 -5 c3 -8 -1 -17 -10 -20 -20 -8 -25 -3
-17 18 8 20 20 21 27 2z m150 -1 c-6 -17 -25 -15 -31 3 -2 7 5 12 17 12 14 0
19 -5 14 -15z m137 -42 c0 -15 -9 -16 -30 -3 -10 6 -11 10 -2 10 6 0 12 4 12
9 0 4 -11 7 -25 6 -21 -3 -23 -1 -12 16 11 18 12 18 34 -3 13 -12 23 -27 23
-35z m120 43 c0 -8 -4 -18 -10 -21 -5 -3 -10 -4 -10 -1 0 2 -3 11 -6 20 -4 11
-1 16 10 16 9 0 16 -6 16 -14z m258 2 c-6 -18 -28 -21 -28 -4 0 9 7 16 16 16
9 0 14 -5 12 -12z m-148 -8 c0 -5 -2 -10 -4 -10 -2 0 -12 -3 -20 -6 -12 -5
-15 -2 -10 10 7 17 34 22 34 6z m244 -10 c-22 -9 -29 -6 -20 9 4 6 14 7 23 4
15 -6 14 -7 -3 -13z m-1154 -21 c0 -21 -7 -23 -29 -10 -12 8 -12 12 -2 25 16
19 31 12 31 -15z m255 10 c8 -26 5 -30 -22 -23 -19 5 -20 9 -10 25 15 24 24
24 32 -2z m260 -20 c-3 -4 -14 -5 -25 -2 -16 4 -18 9 -8 26 10 20 11 20 24 2
7 -10 11 -21 9 -26z m249 25 c10 -26 7 -32 -14 -27 -11 3 -20 7 -20 8 0 12 14
35 20 35 4 0 11 -7 14 -16z m261 -25 c-3 -4 -14 -5 -24 -2 -17 4 -18 8 -8 24
11 18 13 18 24 3 7 -9 10 -20 8 -25z m-951 9 c-9 -31 -11 -33 -30 -17 -14 12
-14 14 2 26 26 19 36 16 28 -9z m93 -14 c-2 -2 -12 -2 -21 2 -13 5 -14 9 -5
21 11 12 14 12 22 -2 5 -9 7 -19 4 -21z m28 18 c-3 -3 -11 0 -18 7 -9 10 -8
11 6 5 10 -3 15 -9 12 -12z m131 -17 c-6 -17 -36 -9 -36 10 0 15 33 25 38 13
2 -5 1 -15 -2 -23z m124 20 c0 -8 -2 -15 -4 -15 -2 0 -6 7 -10 15 -3 8 -1 15
4 15 6 0 10 -7 10 -15z m134 -7 c-9 -32 -11 -32 -29 -15 -14 14 -14 17 2 26
28 16 35 13 27 -11z m129 5 c-3 -7 -9 -10 -14 -7 -14 8 -11 21 5 21 8 0 12 -6
9 -14z m129 -8 c-5 -28 -14 -31 -31 -11 -10 11 -8 17 6 25 27 16 31 13 25 -14z
m133 15 c-3 -5 -10 -10 -16 -10 -5 0 -9 5 -9 10 0 6 7 10 16 10 8 0 12 -4 9
-10z m120 -19 c-8 -25 -18 -27 -35 -6 -10 12 -8 16 11 24 29 11 33 8 24 -18z
m-675 4 c0 -8 -4 -15 -9 -15 -13 0 -22 16 -14 24 11 11 23 6 23 -9z m510 0 c0
-8 -4 -15 -9 -15 -13 0 -22 16 -14 24 11 11 23 6 23 -9z m260 0 c0 -17 -2 -18
-25 -9 -13 5 -14 8 -3 15 19 13 28 11 28 -6z m-818 -37 c-3 -12 -7 -17 -9 -11
-3 7 -12 9 -21 6 -14 -5 -13 -2 3 14 24 25 35 21 27 -9z m511 -10 c-5 -10 -33
2 -33 14 0 5 5 6 10 3 6 -3 10 2 11 12 0 16 1 16 8 -2 5 -11 7 -23 4 -27z
m254 28 c-3 -7 0 -19 6 -25 12 -12 7 -14 -16 -5 -16 6 -12 44 5 44 6 0 8 -6 5
-14z m-1021 -16 c0 -19 -16 -27 -29 -13 -7 6 11 33 22 33 4 0 7 -9 7 -20z
m514 13 c-1 -18 -19 -35 -29 -28 -9 5 -9 10 0 21 12 15 29 19 29 7z m-646 -18
c3 -9 0 -15 -9 -15 -8 0 -15 7 -15 15 0 8 4 15 9 15 5 0 11 -7 15 -15z m56 -6
c0 -5 -7 -9 -15 -9 -9 0 -12 6 -9 15 6 15 24 11 24 -6z m160 -11 c0 -5 -7 -8
-15 -8 -15 0 -20 21 -8 33 7 7 23 -11 23 -25z m40 11 c0 -5 -4 -9 -10 -9 -5 0
-10 7 -10 16 0 8 5 12 10 9 6 -3 10 -10 10 -16z m50 0 c0 -5 -4 -9 -10 -9 -5
0 -10 7 -10 16 0 8 5 12 10 9 6 -3 10 -10 10 -16z m163 1 c4 -15 0 -20 -14
-20 -17 0 -18 3 -9 20 6 11 12 20 14 20 2 0 6 -9 9 -20z m33 11 c-4 -5 0 -12
6 -14 8 -3 6 -6 -4 -6 -18 -1 -24 10 -11 22 9 10 15 8 9 -2z m64 -12 c0 -5 -7
-9 -15 -9 -15 0 -20 12 -9 23 8 8 24 -1 24 -14z m110 0 c0 -6 -4 -7 -10 -4 -5
3 -10 11 -10 16 0 6 5 7 10 4 6 -3 10 -11 10 -16z m50 -11 c0 -5 -7 -8 -15 -8
-17 0 -18 2 -9 25 5 13 8 14 15 3 5 -7 9 -16 9 -20z m92 17 c0 -5 -5 -11 -11
-13 -6 -2 -11 4 -11 13 0 9 5 15 11 13 6 -2 11 -8 11 -13z m118 -6 c0 -5 -4
-9 -10 -9 -5 0 -10 7 -10 16 0 8 5 12 10 9 6 -3 10 -10 10 -16z m140 0 c0 -5
-4 -9 -10 -9 -5 0 -10 7 -10 16 0 8 5 12 10 9 6 -3 10 -10 10 -16z m-905 1
c-3 -5 -10 -10 -16 -10 -5 0 -9 5 -9 10 0 6 7 10 16 10 8 0 12 -4 9 -10z m255
0 c0 -5 -4 -10 -10 -10 -5 0 -10 5 -10 10 0 6 5 10 10 10 6 0 10 -4 10 -10z
m340 0 c0 -5 -4 -10 -10 -10 -5 0 -10 5 -10 10 0 6 5 10 10 10 6 0 10 -4 10
-10z m214 -5 c4 -10 -1 -15 -14 -15 -20 0 -26 11 -13 23 10 11 20 8 27 -8z
m46 6 c0 -5 -7 -11 -15 -15 -15 -5 -20 5 -8 17 9 10 23 9 23 -2z m-1015 -51
c-6 -9 -9 -9 -16 1 -10 17 0 34 13 21 6 -6 7 -16 3 -22z m103 8 c-5 -15 -23
-11 -26 6 -2 11 2 14 13 10 9 -4 14 -11 13 -16z m246 16 c20 -8 21 -20 2 -27
-8 -3 -16 2 -19 14 -6 21 -5 22 17 13z m59 -11 c-7 -2 -9 -11 -6 -19 6 -16
-13 -19 -22 -3 -7 11 26 41 35 32 3 -3 0 -8 -7 -10z m110 -9 c-7 -18 -19 -18
-26 0 -7 18 1 26 18 19 8 -2 11 -11 8 -19z m95 4 c-5 -15 -23 -11 -26 6 -2 11
2 14 13 10 9 -4 14 -11 13 -16z m259 -1 c-6 -20 -27 -19 -27 2 0 14 5 19 15
14 9 -3 14 -10 12 -16z m253 13 c13 -9 13 -11 0 -19 -10 -7 -17 -6 -22 2 -17
26 -5 35 22 17z m-867 -21 c-4 -16 -8 -17 -14 -7 -13 19 -11 28 5 28 9 0 12
-7 9 -21z m411 6 c-6 -16 -34 -21 -34 -7 0 13 11 22 26 22 8 0 11 -6 8 -15z
m106 0 c-7 -8 -14 -15 -15 -15 -2 0 -5 7 -9 15 -4 10 1 15 16 15 17 0 18 -2 8
-15z m38 2 c8 -10 6 -13 -8 -14 -13 -1 -17 3 -13 13 6 17 8 17 21 1z m216 -2
c-4 -8 -10 -15 -14 -15 -4 0 -10 7 -14 15 -4 10 1 15 14 15 13 0 18 -5 14 -15z
m156 8 c-1 -20 -16 -31 -30 -22 -13 8 -13 10 0 19 18 12 30 13 30 3z m-1130
-13 c0 -5 -7 -10 -16 -10 -8 0 -12 5 -9 10 3 6 10 10 16 10 5 0 9 -4 9 -10z
m96 -13 c2 -13 -1 -14 -16 -4 -10 6 -16 15 -13 20 8 13 26 3 29 -16z m57 -3
c-3 -8 -9 -14 -15 -14 -5 0 -6 5 -3 10 3 6 1 10 -4 10 -6 0 -11 4 -11 9 0 5 9
7 19 4 12 -3 17 -11 14 -19z m97 16 c0 -5 -7 -10 -16 -10 -8 0 -12 5 -9 10 3
6 10 10 16 10 5 0 9 -4 9 -10z m158 1 c10 -6 10 -10 -3 -21 -8 -7 -15 -10 -15
-7 0 3 -3 12 -6 21 -7 17 3 20 24 7z m254 -5 c6 4 9 1 6 -6 -8 -24 -28 -23
-27 2 0 13 3 17 6 10 2 -6 9 -9 15 -6z m199 0 c5 3 9 -2 9 -10 0 -13 -3 -14
-19 -4 -11 7 -17 17 -14 22 4 6 8 5 11 -2 2 -7 8 -10 13 -6z m69 -7 c0 -15
-22 -21 -31 -8 -14 22 -11 28 11 22 11 -3 20 -9 20 -14z m90 11 c0 -5 -7 -10
-16 -10 -8 0 -12 5 -9 10 3 6 10 10 16 10 5 0 9 -4 9 -10z m-510 -10 c0 -5 -7
-7 -15 -4 -8 4 -15 8 -15 10 0 2 7 4 15 4 8 0 15 -4 15 -10z m-580 -42 c0 -5
-7 -8 -15 -8 -15 0 -20 21 -8 33 7 7 23 -11 23 -25z m139 18 c9 -10 8 -15 -4
-20 -10 -4 -15 1 -15 14 0 24 4 25 19 6z m121 -17 c0 -5 -9 -9 -19 -9 -14 0
-18 5 -14 20 4 16 8 18 19 9 8 -6 14 -15 14 -20z m139 17 c9 -11 7 -15 -8 -19
-15 -3 -19 0 -18 14 2 22 10 24 26 5z m111 -12 c0 -8 -7 -14 -15 -14 -17 0
-18 2 -9 24 7 18 24 12 24 -10z m148 8 c2 -7 -3 -12 -12 -12 -9 0 -16 7 -16
16 0 17 22 14 28 -4z m112 -14 c0 -5 -9 -8 -20 -8 -18 0 -19 3 -9 21 9 17 13
19 20 8 5 -8 9 -17 9 -21z m138 1 c-17 -10 -28 -2 -21 17 4 11 8 12 20 3 11
-10 11 -14 1 -20z m116 16 c3 -9 -1 -18 -10 -22 -19 -7 -26 0 -18 21 8 20 20
21 28 1z m143 -2 c2 -6 -3 -13 -12 -16 -10 -5 -15 0 -15 14 0 21 21 22 27 2z
m-1067 -3 c0 -5 -5 -10 -11 -10 -5 0 -7 5 -4 10 3 6 8 10 11 10 2 0 4 -4 4
-10z m256 -5 c-4 -11 3 -17 25 -22 28 -5 29 -7 13 -24 -17 -18 -18 -18 -36 12
-10 16 -16 34 -13 40 10 15 18 10 11 -6z m226 -19 c11 -17 10 -23 -7 -23 -8 0
-15 8 -15 18 0 12 -5 16 -15 13 -10 -4 -15 0 -15 10 0 14 3 15 23 5 12 -7 25
-17 29 -23z m33 24 c3 -5 1 -10 -4 -10 -6 0 -11 5 -11 10 0 6 2 10 4 10 3 0 8
-4 11 -10z m255 0 c0 -5 -5 -10 -11 -10 -5 0 -7 5 -4 10 3 6 8 10 11 10 2 0 4
-4 4 -10z m181 -13 c-10 -9 -11 -8 -5 6 3 10 9 15 12 12 3 -3 0 -11 -7 -18z
m-346 -16 c-6 -5 -25 10 -25 20 0 5 6 4 14 -3 8 -7 12 -15 11 -17z m422 23
c-3 -3 -12 -4 -19 -1 -8 3 -5 6 6 6 11 1 17 -2 13 -5z m-1053 -20 c9 -23 8
-24 -14 -24 -11 0 -20 2 -20 4 0 12 13 36 20 36 4 0 11 -7 14 -16z m111 6 c3
-5 1 -10 -4 -10 -6 0 -11 5 -11 10 0 6 2 10 4 10 3 0 8 -4 11 -10z m145 -22
c0 -5 -7 -8 -15 -8 -15 0 -20 21 -8 33 7 7 23 -11 23 -25z m115 22 c3 -5 1
-10 -4 -10 -6 0 -11 5 -11 10 0 6 2 10 4 10 3 0 8 -4 11 -10z m395 -14 c0 -7
-7 -13 -15 -13 -15 0 -20 18 -9 30 9 9 24 -2 24 -17z m102 2 c-7 -7 -12 -8
-12 -2 0 14 12 26 19 19 2 -3 -1 -11 -7 -17z m164 -9 c11 -23 13 -34 5 -42
-11 -11 -16 1 -11 32 1 9 -4 12 -14 8 -16 -6 -23 13 -9 26 10 11 11 9 29 -24z
m-967 -10 c-10 -20 -29 -26 -29 -10 0 5 -3 16 -6 24 -4 11 1 13 20 10 21 -4
24 -8 15 -24z m521 14 c0 -7 -31 -36 -34 -32 -2 2 -6 14 -10 25 -6 19 -3 21
19 16 14 -2 25 -6 25 -9z m250 -2 c0 -3 -5 -13 -10 -21 -9 -13 -11 -13 -20 0
-16 24 -12 39 10 33 11 -3 20 -8 20 -12z m259 3 c2 -2 -2 -11 -10 -20 -12 -14
-14 -14 -26 2 -19 26 -16 36 10 28 12 -3 24 -8 26 -10z m-1169 -13 c-16 -31
-27 -33 -32 -6 -4 21 -1 25 19 25 20 0 22 -3 13 -19z m264 11 c-6 -4 -14 -16
-18 -27 -6 -16 -9 -17 -16 -5 -17 26 -11 40 18 40 15 0 22 -4 16 -8z m249 -12
c-8 -31 -19 -32 -31 -5 -11 23 -9 25 12 25 19 0 23 -4 19 -20z m257 13 c0 -17
-19 -35 -29 -29 -18 12 -12 36 9 36 11 0 20 -3 20 -7z m253 -13 c-8 -30 -17
-31 -30 -4 -10 22 -9 24 12 24 18 0 22 -4 18 -20z m-813 -22 c0 -3 -9 -4 -20
-1 -16 4 -18 8 -9 20 10 11 14 11 20 1 5 -7 9 -16 9 -20z m250 12 c0 -13 -5
-18 -14 -14 -8 3 -12 12 -9 20 8 21 23 17 23 -6z m258 -15 c-9 -9 -30 14 -23
25 6 9 10 8 17 -4 6 -10 8 -19 6 -21z m252 20 c0 -8 -7 -15 -15 -15 -9 0 -12
6 -9 15 4 8 10 15 15 15 5 0 9 -7 9 -15z m-880 -15 c0 -5 -4 -10 -10 -10 -5 0
-10 5 -10 10 0 6 5 10 10 10 6 0 10 -4 10 -10z m216 -16 c-5 -14 -9 -15 -19
-5 -9 9 -9 14 3 21 18 11 24 6 16 -16z m38 11 c-4 -8 -7 -15 -9 -15 -2 0 -5 7
-9 15 -3 9 0 15 9 15 9 0 12 -6 9 -15z m256 6 c0 -6 -4 -13 -10 -16 -5 -3 -10
1 -10 9 0 9 5 16 10 16 6 0 10 -4 10 -9z m265 -1 c-3 -5 -10 -10 -16 -10 -5 0
-9 5 -9 10 0 6 7 10 16 10 8 0 12 -4 9 -10z m-811 -15 c-4 -8 -10 -15 -14 -15
-4 0 -10 7 -14 15 -4 10 1 15 14 15 13 0 18 -5 14 -15z m106 0 c0 -8 -7 -15
-15 -15 -16 0 -20 12 -8 23 11 12 23 8 23 -8z m250 0 c0 -8 -7 -15 -15 -15 -9
0 -12 6 -9 15 4 8 10 15 15 15 5 0 9 -7 9 -15z m154 0 c-4 -8 -10 -15 -14 -15
-4 0 -10 7 -14 15 -4 10 1 15 14 15 13 0 18 -5 14 -15z m106 0 c0 -8 -8 -15
-17 -14 -11 0 -13 3 -5 6 6 2 10 9 6 14 -3 5 0 9 5 9 6 0 11 -7 11 -15z m148
4 c-2 -6 -8 -10 -13 -10 -5 0 -11 4 -13 10 -2 6 4 11 13 11 9 0 15 -5 13 -11z
m260 0 c-2 -6 -8 -10 -13 -10 -5 0 -11 4 -13 10 -2 6 4 11 13 11 9 0 15 -5 13
-11z m92 -19 c-18 -11 -22 -7 -14 14 5 13 10 14 18 6 8 -8 7 -13 -4 -20z
m-1150 -17 c0 -7 -9 -13 -20 -13 -23 0 -26 14 -7 34 13 15 27 4 27 -21z m259
-5 c1 -5 -10 -8 -24 -8 -25 0 -25 0 -8 26 15 24 17 25 24 8 4 -11 8 -22 8 -26z
m254 12 c4 -16 0 -20 -19 -20 -27 0 -29 3 -12 29 14 23 23 20 31 -9z m256 -12
c1 -5 -8 -8 -19 -8 -23 0 -24 4 -8 33 11 21 11 21 19 2 4 -11 8 -23 8 -27z
m141 27 c0 -2 -7 -5 -15 -9 -9 -3 -15 0 -15 9 0 9 6 12 15 9 8 -4 15 -7 15 -9z
m-450 -17 c0 -13 -23 -5 -28 10 -2 7 2 10 12 6 9 -3 16 -11 16 -16z m563 2 c4
-16 0 -20 -19 -20 -22 0 -23 3 -14 20 6 11 15 20 19 20 5 0 11 -9 14 -20z
m-951 -15 c-5 -29 -14 -31 -33 -9 -10 13 -10 17 2 25 25 16 36 10 31 -16z m98
-7 c0 -11 -12 -10 -30 2 -13 9 -13 11 0 19 14 9 29 -2 30 -21z m40 28 c0 -2
-7 -6 -15 -10 -8 -3 -15 -1 -15 4 0 6 7 10 15 10 8 0 15 -2 15 -4z m120 -8 c0
-7 -4 -19 -9 -26 -6 -10 -11 -10 -21 3 -12 14 -11 18 1 26 20 12 29 11 29 -3z
m90 -3 c0 -8 -7 -15 -15 -15 -16 0 -20 12 -8 23 11 12 23 8 23 -8z m166 -1
c-3 -9 -6 -20 -6 -25 0 -5 -9 -4 -20 3 -25 16 -25 25 -2 31 31 8 34 7 28 -9z
m94 -5 c0 -5 -10 -9 -21 -9 -18 0 -19 2 -9 15 12 15 30 12 30 -6z m35 11 c-3
-5 -10 -10 -16 -10 -5 0 -9 5 -9 10 0 6 7 10 16 10 8 0 12 -4 9 -10z m125 -9
c0 -27 -15 -34 -31 -15 -10 13 -10 17 2 25 22 13 29 11 29 -10z m88 -11 c-2
-6 -8 -6 -18 0 -13 9 -13 11 0 20 15 10 25 0 18 -20z m172 21 c0 -5 -3 -17 -6
-26 -6 -14 -8 -14 -26 2 -18 16 -18 18 -1 24 25 11 33 10 33 0z m90 -10 c0
-14 -5 -18 -20 -14 -16 4 -18 8 -9 19 16 20 29 17 29 -5z m-562 -45 c-2 -10
-8 -13 -16 -7 -7 4 -10 15 -6 25 8 21 28 6 22 -18z m258 9 c1 -8 -2 -17 -7
-21 -5 -3 -9 0 -9 6 0 6 -4 8 -10 5 -14 -9 -13 8 2 23 13 13 21 9 24 -13z
m249 15 c-3 -5 -1 -10 5 -10 6 0 8 -4 5 -10 -3 -5 -16 -10 -27 -10 -20 0 -21
1 -3 20 19 21 30 27 20 10z m-1103 -32 c-9 -9 -12 -7 -12 12 0 19 3 21 12 12
9 -9 9 -15 0 -24z m88 11 c0 -5 -10 -9 -21 -9 -18 0 -19 2 -9 15 12 15 30 12
30 -6z m169 7 c9 -10 8 -15 -4 -20 -10 -4 -15 1 -15 14 0 24 4 25 19 6z m91
-18 c0 -13 -38 -9 -46 4 -5 8 -2 9 9 5 12 -4 17 -1 17 11 0 15 2 15 10 2 5 -8
10 -18 10 -22z m170 12 c0 -4 -6 -10 -14 -13 -10 -4 -12 0 -9 14 5 18 23 18
23 -1z m246 11 c-4 -5 -1 -11 6 -13 8 -3 6 -7 -5 -11 -12 -5 -17 -1 -17 13 0
11 5 20 11 20 5 0 8 -4 5 -9z m268 -22 c-8 -13 -24 -1 -24 18 0 13 3 13 15 3
8 -7 12 -16 9 -21z m-1080 6 c3 -9 0 -15 -9 -15 -8 0 -15 7 -15 15 0 8 4 15 9
15 5 0 11 -7 15 -15z m166 5 c0 -5 -5 -10 -11 -10 -5 0 -7 5 -4 10 3 6 8 10
11 10 2 0 4 -4 4 -10z m50 -14 c0 -7 -7 -13 -15 -13 -15 0 -20 18 -9 30 9 9
24 -2 24 -17z m40 3 c0 -5 -7 -9 -15 -9 -9 0 -12 6 -9 15 6 15 24 11 24 -6z
m170 11 c0 -5 -4 -10 -10 -10 -5 0 -10 5 -10 10 0 6 5 10 10 10 6 0 10 -4 10
-10z m44 -6 c8 -21 1 -28 -18 -21 -9 4 -13 13 -10 22 8 20 20 19 28 -1z m40 1
c3 -9 0 -15 -9 -15 -9 0 -12 6 -9 15 4 8 7 15 9 15 2 0 5 -7 9 -15z m166 5 c0
-5 -4 -10 -10 -10 -5 0 -10 5 -10 10 0 6 5 10 10 10 6 0 10 -4 10 -10z m45
-28 c-22 -5 -27 1 -19 23 7 17 8 17 21 -1 12 -17 12 -19 -2 -22z m40 29 c3 -5
1 -12 -5 -16 -5 -3 -10 1 -10 9 0 18 6 21 15 7z m170 -1 c3 -5 1 -10 -4 -10
-6 0 -11 5 -11 10 0 6 2 10 4 10 3 0 8 -4 11 -10z m49 -6 c8 -22 8 -23 -11
-20 -10 2 -17 6 -15 9 1 4 2 12 2 17 0 16 17 12 24 -6z m32 -11 c-10 -10 -19
5 -10 18 6 11 8 11 12 0 2 -7 1 -15 -2 -18z m-997 -34 c-9 -17 -13 -19 -20 -8
-14 22 -11 29 11 29 18 0 19 -3 9 -21z m99 3 c2 -7 -3 -12 -12 -12 -9 0 -16 7
-16 16 0 17 22 14 28 -4z m162 14 c0 -15 -14 -35 -21 -30 -15 9 -10 34 6 34 8
0 15 -2 15 -4z m88 -5 c10 -6 10 -10 -1 -20 -12 -9 -16 -7 -20 9 -5 21 0 25
21 11z m165 -11 c-3 -11 -7 -20 -9 -20 -2 0 -8 9 -14 20 -9 17 -8 20 9 20 14
0 18 -5 14 -20z m95 11 c10 -6 10 -10 -3 -21 -8 -7 -15 -10 -15 -7 0 3 -3 12
-6 21 -7 17 3 20 24 7z m162 2 c0 -10 -20 -40 -20 -31 0 3 -3 13 -6 22 -4 11
-1 16 10 16 9 0 16 -3 16 -7z m98 -11 c2 -7 -3 -12 -12 -12 -9 0 -16 7 -16 16
0 17 22 14 28 -4z m52 -7 c0 -23 -2 -24 -21 -15 -20 11 -20 12 -2 25 24 19 23
19 23 -10z m110 21 c0 -12 -13 -36 -20 -36 -4 0 -10 9 -13 20 -4 15 0 20 14
20 10 0 19 -2 19 -4z m88 -5 c10 -6 10 -10 -1 -20 -12 -9 -16 -7 -20 9 -5 21
0 25 21 11z m62 2 c-1 -18 -19 -35 -29 -28 -9 5 -7 11 6 21 21 16 23 16 23 7z
m-1130 -31 c0 -15 -2 -15 -10 -2 -13 20 -13 33 0 25 6 -3 10 -14 10 -23z m98
-2 c-2 -6 -8 -6 -18 0 -13 9 -13 11 0 20 15 10 25 0 18 -20z m62 10 c0 -5 -5
-12 -11 -16 -12 -7 -31 15 -23 28 6 9 34 -1 34 -12z m100 -1 c0 -5 -7 -9 -15
-9 -15 0 -20 12 -9 23 8 8 24 -1 24 -14z m90 1 c-6 -11 -15 -18 -20 -15 -13 8
0 35 16 35 12 0 12 -4 4 -20z m57 -18 c-9 -12 -12 -11 -18 5 -12 30 -10 34 10
21 16 -10 17 -15 8 -26z m203 18 c0 -13 -5 -18 -15 -14 -16 7 -19 17 -8 27 12
13 23 7 23 -13z m160 2 c0 -4 -9 -8 -21 -9 -17 -2 -18 1 -9 12 12 14 30 12 30
-3z m-260 -2 c0 -5 -2 -10 -4 -10 -3 0 -8 5 -11 10 -3 6 -1 10 4 10 6 0 11 -4
11 -10z m150 -1 c0 -5 6 -7 13 -3 7 5 6 1 -3 -10 -11 -14 -15 -15 -19 -5 -2 8
-9 17 -15 21 -7 5 -4 8 7 8 9 0 17 -5 17 -11z m260 -9 c-6 -11 -12 -20 -14
-20 -2 0 -6 9 -9 20 -4 15 0 20 14 20 17 0 18 -3 9 -20z m110 10 c0 -5 -9 -10
-21 -10 -11 0 -17 5 -14 10 3 6 13 10 21 10 8 0 14 -4 14 -10z m-950 -41 c0
-5 -9 -9 -19 -9 -14 0 -18 5 -14 20 4 16 8 18 19 9 8 -6 14 -15 14 -20z m763
-1 c-10 -17 -31 -7 -26 11 4 16 8 17 18 8 7 -7 11 -15 8 -19z m257 1 c0 -5 -7
-9 -15 -9 -9 0 -15 9 -15 21 0 18 2 19 15 9 8 -7 15 -16 15 -21z m-1170 0 c0
-5 -7 -9 -15 -9 -15 0 -20 12 -9 23 8 8 24 -1 24 -14z m254 6 c4 -10 -1 -15
-14 -15 -13 0 -18 5 -14 15 4 8 10 15 14 15 4 0 10 -7 14 -15z m98 -7 c-7 -7
-12 -8 -12 -2 0 6 3 14 7 17 3 4 9 5 12 2 2 -3 -1 -11 -7 -17z m52 1 c-7 -11
-34 -12 -34 -1 0 14 11 21 26 15 8 -3 11 -9 8 -14z m106 0 c0 -5 -7 -9 -15 -9
-9 0 -12 6 -9 15 6 15 24 11 24 -6z m148 3 c2 -7 -3 -12 -12 -12 -9 0 -16 7
-16 16 0 17 22 14 28 -4z m106 3 c4 -10 -1 -15 -14 -15 -13 0 -18 5 -14 15 4
8 10 15 14 15 4 0 10 -7 14 -15z m106 -1 c0 -8 -5 -12 -10 -9 -6 4 -8 11 -5
16 9 14 15 11 15 -7z m150 1 c0 -8 -7 -15 -15 -15 -9 0 -12 6 -9 15 4 8 10 15
15 15 5 0 9 -7 9 -15z m-920 -5 c0 -5 -5 -10 -11 -10 -5 0 -7 5 -4 10 3 6 8
10 11 10 2 0 4 -4 4 -10z m195 0 c3 -6 -1 -7 -9 -4 -18 7 -21 14 -7 14 6 0 13
-4 16 -10z m255 1 c0 -6 -4 -13 -10 -16 -5 -3 -10 1 -10 9 0 9 5 16 10 16 6 0
10 -4 10 -9z m255 -1 c3 -5 1 -10 -4 -10 -6 0 -11 5 -11 10 0 6 2 10 4 10 3 0
8 -4 11 -10z m-367 -25 c-3 -3 -9 2 -12 12 -6 14 -5 15 5 6 7 -7 10 -15 7 -18z
m256 16 c3 -5 -1 -14 -8 -20 -12 -10 -13 -8 -9 8 6 23 9 25 17 12z m-620 -16
c4 -10 -1 -15 -14 -15 -13 0 -18 5 -14 15 4 8 10 15 14 15 4 0 10 -7 14 -15z
m111 5 c-3 -5 -10 -10 -16 -10 -5 0 -9 5 -9 10 0 6 7 10 16 10 8 0 12 -4 9
-10z m144 -19 c-3 -6 -10 -7 -18 -2 -7 5 -10 14 -6 21 9 14 29 -2 24 -19z
m255 14 c4 -10 -1 -15 -14 -15 -13 0 -18 5 -14 15 4 8 10 15 14 15 4 0 10 -7
14 -15z m256 0 c0 -8 -7 -15 -15 -15 -9 0 -12 6 -9 15 4 8 10 15 15 15 5 0 9
-7 9 -15z m115 5 c-3 -5 -11 -10 -16 -10 -6 0 -7 5 -4 10 3 6 11 10 16 10 6 0
7 -4 4 -10z m145 -11 c0 -5 -10 -9 -21 -9 -18 0 -19 2 -9 15 12 15 30 12 30
-6z m-968 3 c14 -6 15 -9 2 -26 -15 -22 -19 -21 -28 12 -8 23 -3 25 26 14z
m257 -1 c12 -8 12 -12 2 -25 -16 -19 -31 -12 -31 15 0 21 7 23 29 10z m258 1
c8 -5 8 -12 -2 -25 -13 -18 -17 -16 -28 16 -7 18 9 23 30 9z m123 -21 c0 -13
-11 -20 -26 -14 -8 3 -14 14 -14 24 0 17 3 18 20 9 11 -6 20 -14 20 -19z m142
19 c6 0 3 -9 -7 -20 -14 -16 -20 -17 -27 -8 -13 22 -9 41 8 34 9 -3 20 -6 26
-6z m249 0 c5 0 4 -9 -3 -19 -14 -23 -23 -20 -31 10 -4 15 -2 19 10 15 8 -3
19 -6 24 -6z m-1162 -7 c0 -5 -4 -16 -8 -26 -6 -17 -8 -16 -19 7 -10 23 -9 26
8 26 11 0 20 -3 19 -7z m204 -13 c4 -15 0 -20 -14 -20 -17 0 -18 3 -9 20 6 11
12 20 14 20 2 0 6 -9 9 -20z m37 8 c0 6 7 12 17 12 14 0 14 -2 -2 -20 -23 -26
-30 -25 -32 2 -2 18 0 20 7 8 7 -10 10 -11 10 -2z m270 5 c0 -5 -4 -14 -9 -22
-7 -11 -11 -9 -20 8 -10 18 -9 21 9 21 11 0 20 -3 20 -7z m210 -25 c0 -5 -7
-8 -15 -8 -17 0 -18 2 -9 25 5 13 8 14 15 3 5 -7 9 -16 9 -20z m243 -6 c-22
-5 -27 6 -12 24 12 15 14 14 20 -3 4 -12 1 -19 -8 -21z m61 23 c-4 -8 -10 -15
-14 -15 -4 0 -13 7 -20 15 -11 13 -8 15 13 15 19 0 25 -4 21 -15z m-564 -10
c0 -8 -7 -15 -15 -15 -16 0 -20 12 -8 23 11 12 23 8 23 -8z m-118 -17 c-7 -7
-12 -8 -12 -2 0 6 3 14 7 17 3 4 9 5 12 2 2 -3 -1 -11 -7 -17z m253 13 c3 -5
1 -12 -5 -16 -5 -3 -10 1 -10 9 0 18 6 21 15 7z m257 -13 c-7 -7 -12 -8 -12
-2 0 14 12 26 19 19 2 -3 -1 -11 -7 -17z m268 14 c0 -13 -12 -22 -22 -16 -10
6 -1 24 13 24 5 0 9 -4 9 -8z m-1060 -11 c0 -5 -6 -14 -14 -20 -10 -9 -15 -8
-19 3 -3 8 -1 17 6 20 19 7 27 7 27 -3z m40 3 c0 -8 -19 -13 -24 -6 -3 5 1 9
9 9 8 0 15 -2 15 -3z m60 -26 c0 -5 -7 -8 -15 -8 -17 0 -18 2 -9 25 5 13 8 14
15 3 5 -7 9 -16 9 -20z m148 12 c-9 -13 -16 -16 -23 -9 -7 7 -5 13 5 19 24 15
31 11 18 -10z m262 13 c0 -5 -5 -15 -10 -23 -9 -13 -11 -13 -19 0 -5 8 -7 18
-5 22 6 10 34 11 34 1z m100 -25 c0 -5 -7 -8 -15 -8 -17 0 -18 2 -9 25 5 13 8
14 15 3 5 -7 9 -16 9 -20z m149 11 c-8 -16 -14 -18 -22 -10 -9 9 -8 14 3 21
24 16 31 11 19 -11z m257 5 c-3 -9 -6 -18 -6 -21 0 -3 -7 1 -17 8 -15 13 -16
11 -9 -13 7 -29 -5 -36 -31 -20 -14 9 1 32 32 50 28 16 38 15 31 -4z m104 -16
c0 -5 -6 -8 -14 -8 -9 0 -12 7 -9 21 4 16 8 17 14 7 5 -7 9 -16 9 -20z m-766
7 c4 -10 -1 -15 -14 -15 -13 0 -18 5 -14 15 4 8 10 15 14 15 4 0 10 -7 14 -15z
m-394 -32 c0 -7 -9 -13 -20 -13 -23 0 -24 4 -9 32 9 17 13 18 20 7 5 -8 9 -20
9 -26z m250 28 c0 -5 3 -16 6 -25 4 -10 1 -16 -9 -16 -20 0 -29 14 -21 34 7
17 24 22 24 7z m270 -33 c0 -4 -11 -8 -25 -8 -29 0 -30 3 -12 30 11 19 13 19
25 3 6 -9 12 -20 12 -25z m249 0 c1 -8 -26 -4 -35 5 -4 3 -1 14 7 23 12 15 14
14 20 -3 4 -10 8 -21 8 -25z m136 32 c8 -13 -5 -13 -25 0 -13 8 -13 10 2 10 9
0 20 -4 23 -10z m-705 -10 c0 -5 -4 -10 -9 -10 -6 0 -13 5 -16 10 -3 6 1 10 9
10 9 0 16 -4 16 -10z m254 -5 c-4 -8 -8 -15 -10 -15 -2 0 -4 7 -4 15 0 8 4 15
10 15 5 0 7 -7 4 -15z m130 -19 c-6 -26 -7 -26 -26 -10 -18 18 -18 18 4 30 28
15 31 13 22 -20z m130 19 c-4 -8 -10 -12 -15 -9 -11 6 -2 24 11 24 5 0 7 -7 4
-15z m256 6 c0 -6 -4 -13 -10 -16 -5 -3 -10 1 -10 9 0 9 5 16 10 16 6 0 10 -4
10 -9z m121 -34 c-7 -7 -15 -6 -26 3 -15 12 -14 15 7 26 19 11 24 10 26 -3 2
-8 -1 -20 -7 -26z m-1018 13 c-6 -22 -11 -24 -33 -10 -13 9 -13 11 0 20 24 16
39 12 33 -10z m97 -1 c0 -5 -9 -9 -20 -9 -22 0 -27 16 -7 23 15 5 27 -1 27
-14z m160 7 c0 -22 -19 -29 -36 -15 -12 10 -12 14 -2 20 20 13 38 10 38 -5z
m90 -1 c0 -8 -6 -15 -14 -15 -20 0 -29 17 -14 23 22 9 28 7 28 -8z m257 0 c0
-8 -6 -15 -13 -15 -18 0 -27 17 -12 23 21 9 25 8 25 -8z m163 -3 c0 -10 -3
-21 -6 -25 -9 -9 -36 21 -29 33 10 17 35 11 35 -8z m84 -10 c-22 -5 -31 7 -14
18 9 6 17 5 22 -3 4 -7 1 -13 -8 -15z m266 13 c0 -8 -7 -15 -15 -15 -16 0 -20
12 -8 23 11 12 23 8 23 -8z m-1074 -35 c0 -13 -7 -20 -18 -20 -21 0 -23 11 -6
28 17 17 24 15 24 -8z m257 6 c7 -17 -20 -30 -29 -14 -4 7 -3 8 4 4 7 -4 12
-1 12 8 0 20 6 20 13 2z m505 -21 c-2 -10 -7 -12 -17 -5 -13 7 -13 11 -1 25
15 18 24 8 18 -20z m262 28 c-1 -18 -18 -35 -24 -24 -4 6 -4 16 -1 21 7 12 25
13 25 3z m-1161 -17 c9 -10 8 -15 -4 -20 -10 -4 -15 1 -15 14 0 24 4 25 19 6z
m61 -7 c0 -5 -7 -9 -15 -9 -15 0 -20 12 -9 23 8 8 24 -1 24 -14z m246 -6 c-10
-10 -19 5 -10 18 6 11 8 11 12 0 2 -7 1 -15 -2 -18z m167 7 c4 -15 0 -20 -13
-20 -13 0 -17 5 -13 20 3 11 9 20 13 20 4 0 10 -9 13 -20z m97 -1 c0 -5 -4 -9
-10 -9 -5 0 -10 7 -10 16 0 8 5 12 10 9 6 -3 10 -10 10 -16z m70 6 c0 -8 -4
-15 -9 -15 -13 0 -22 16 -14 24 11 11 23 6 23 -9z m123 0 c4 -8 2 -17 -3 -20
-6 -4 -10 3 -10 14 0 25 6 27 13 6z m59 0 c0 -5 -5 -11 -11 -13 -6 -2 -11 4
-11 13 0 9 5 15 11 13 6 -2 11 -8 11 -13z m208 -6 c0 -5 -7 -9 -15 -9 -9 0
-12 6 -9 15 6 15 24 11 24 -6z m48 -10 c-17 -10 -28 -2 -21 17 4 11 8 12 20 3
11 -10 11 -14 1 -20z m-898 17 c0 -11 -19 -15 -25 -6 -3 5 1 10 9 10 9 0 16
-2 16 -4z m34 -11 c4 -10 -1 -15 -16 -15 -17 0 -18 2 -8 15 7 8 14 15 15 15 2
0 5 -7 9 -15z m51 5 c3 -5 -1 -10 -9 -10 -9 0 -16 5 -16 10 0 6 4 10 9 10 6 0
13 -4 16 -10z m165 0 c0 -5 -4 -10 -10 -10 -5 0 -10 5 -10 10 0 6 5 10 10 10
6 0 10 -4 10 -10z m90 -6 c0 -2 -7 -4 -15 -4 -8 0 -15 4 -15 10 0 5 7 7 15 4
8 -4 15 -8 15 -10z m209 -13 c-3 -6 -10 -7 -18 -2 -7 5 -10 14 -6 21 9 14 29
-2 24 -19z m211 19 c0 -5 -4 -10 -10 -10 -5 0 -10 5 -10 10 0 6 5 10 10 10 6
0 10 -4 10 -10z m44 -5 c4 -10 -1 -15 -14 -15 -13 0 -18 5 -14 15 4 8 10 15
14 15 4 0 10 -7 14 -15z m216 11 c0 -3 -4 -8 -10 -11 -5 -3 -10 -1 -10 4 0 6
5 11 10 11 6 0 10 -2 10 -4z m-1083 -49 c-6 -20 -27 -19 -27 2 0 14 5 19 15
14 9 -3 14 -10 12 -16z m263 2 c0 -15 -22 -21 -31 -8 -14 22 -11 28 11 22 11
-3 20 -9 20 -14z m247 -2 c-6 -20 -27 -19 -27 2 0 14 5 19 15 14 9 -3 14 -10
12 -16z m-607 -7 c-6 -11 -12 -20 -14 -20 -2 0 -6 9 -9 20 -4 15 0 20 14 20
17 0 18 -3 9 -20z m150 -2 c0 -19 -2 -20 -10 -8 -7 11 -10 11 -10 2 0 -7 -5
-10 -12 -6 -7 5 -5 11 7 21 24 17 25 17 25 -9z m110 15 c0 -10 -20 -40 -20
-31 0 3 -3 13 -6 22 -4 11 -1 16 10 16 9 0 16 -3 16 -7z m143 -12 c-3 -12 -11
-17 -19 -14 -11 4 -12 9 -3 19 16 20 28 17 22 -5z m111 4 c-4 -8 -10 -15 -14
-15 -4 0 -10 7 -14 15 -4 10 1 15 14 15 13 0 18 -5 14 -15z m146 -11 c0 -22
-2 -25 -15 -14 -12 10 -13 16 -4 26 16 20 19 18 19 -12z m108 15 c-2 -6 -8
-10 -13 -10 -5 0 -11 4 -13 10 -2 6 4 11 13 11 9 0 15 -5 13 -11z m48 -18 c-4
-6 -14 -11 -22 -11 -12 0 -12 3 -2 20 7 11 16 16 21 11 5 -5 6 -14 3 -20z m52
17 c-6 -18 -28 -21 -28 -4 0 9 7 16 16 16 9 0 14 -5 12 -12z m49 -8 c2 -20 -8
-26 -20 -13 -4 3 -2 12 4 20 15 17 14 17 16 -7z m107 5 c-4 -8 -10 -15 -14
-15 -4 0 -10 7 -14 15 -4 10 1 15 14 15 13 0 18 -5 14 -15z m97 0 c1 -17 -18
-17 -25 0 -4 11 -1 15 10 13 8 -2 15 -7 15 -13z m59 -3 c0 -26 -10 -33 -25
-19 -9 8 -10 16 -3 25 15 18 28 15 28 -6z m-1136 -20 c-22 -5 -31 7 -14 18 9
6 17 5 22 -3 4 -7 1 -13 -8 -15z m413 -3 c-11 -18 -12 -18 -19 -1 -11 27 -9
30 11 25 17 -4 18 -8 8 -24z m103 17 c9 -12 8 -15 -9 -13 -21 1 -26 8 -14 20
9 9 9 9 23 -7z m159 -12 c-16 -19 -24 -17 -26 5 -1 14 3 17 18 14 15 -4 17 -8
8 -19z m246 16 c3 -5 2 -17 -3 -26 -8 -14 -10 -12 -14 10 -5 26 5 35 17 16z
m-762 -9 c3 8 6 9 6 3 1 -6 -6 -17 -14 -24 -13 -10 -15 -9 -15 11 0 17 3 20 9
10 7 -11 9 -11 14 0z m97 -1 c0 -5 -4 -10 -10 -10 -5 0 -10 5 -10 10 0 6 5 10
10 10 6 0 10 -4 10 -10z m775 0 c3 -5 -3 -10 -15 -10 -12 0 -18 5 -15 10 3 6
10 10 15 10 5 0 12 -4 15 -10z m-956 -24 c9 -10 8 -15 -4 -20 -10 -4 -15 1
-15 14 0 24 4 25 19 6z m114 -6 c4 -15 0 -20 -14 -20 -17 0 -18 3 -9 20 6 11
12 20 14 20 2 0 6 -9 9 -20z m147 5 c10 -13 9 -15 -8 -15 -15 0 -20 5 -16 15
4 8 7 15 9 15 1 0 8 -7 15 -15z m260 -15 c0 -3 -7 -7 -15 -7 -8 0 -15 9 -15
20 0 16 3 17 15 7 8 -7 15 -16 15 -20z m110 -2 c0 -5 -9 -8 -20 -8 -18 0 -19
3 -9 21 9 17 13 19 20 8 5 -8 9 -17 9 -21z m138 1 c-21 -14 -26 -10 -21 11 4
16 8 18 20 9 11 -10 11 -14 1 -20z m260 9 c2 -8 -4 -15 -13 -15 -8 0 -15 9
-15 20 0 22 23 18 28 -5z m-1134 -4 c3 -8 2 -12 -4 -9 -6 3 -10 10 -10 16 0
14 7 11 14 -7z m250 0 c3 -8 2 -12 -4 -9 -6 3 -10 10 -10 16 0 14 7 11 14 -7z
m76 6 c0 -5 -5 -10 -11 -10 -5 0 -7 5 -4 10 3 6 8 10 11 10 2 0 4 -4 4 -10z
m150 -11 c0 -5 -7 -9 -15 -9 -15 0 -20 12 -9 23 8 8 24 -1 24 -14z m105 11 c3
-5 -1 -10 -10 -10 -9 0 -13 5 -10 10 3 6 8 10 10 10 2 0 7 -4 10 -10z m283
-31 c22 -8 24 -12 12 -20 -12 -8 -12 -12 -2 -16 6 -2 10 -8 7 -13 -3 -5 4 -11
15 -15 11 -3 20 -15 20 -25 0 -13 -5 -17 -14 -14 -9 3 -12 12 -9 21 4 10 2 14
-5 9 -6 -3 -13 3 -17 14 -3 11 -10 20 -14 20 -13 0 -42 60 -34 73 5 9 9 7 11
-6 2 -10 16 -23 30 -28z m126 26 c4 -10 -1 -15 -14 -15 -20 0 -26 11 -13 23
10 11 20 8 27 -8z m-474 -5 c0 -5 -4 -10 -10 -10 -5 0 -10 5 -10 10 0 6 5 10
10 10 6 0 10 -4 10 -10z m260 1 c0 -6 -4 -13 -10 -16 -5 -3 -10 1 -10 9 0 9 5
16 10 16 6 0 10 -4 10 -9z m260 -1 c0 -5 -4 -10 -9 -10 -6 0 -13 5 -16 10 -3
6 1 10 9 10 9 0 16 -4 16 -10z m-885 -9 c3 -5 1 -12 -5 -16 -5 -3 -10 1 -10 9
0 18 6 21 15 7z m145 -17 c0 -8 -7 -14 -15 -14 -17 0 -18 2 -9 24 7 18 24 12
24 -10z m120 10 c0 -2 -7 -4 -15 -4 -8 0 -15 4 -15 10 0 5 7 7 15 4 8 -4 15
-8 15 -10z m140 -16 c0 -5 -9 -8 -20 -8 -18 0 -19 3 -9 21 9 17 13 19 20 8 5
-8 9 -17 9 -21z m105 23 c3 -5 1 -12 -5 -16 -5 -3 -10 1 -10 9 0 18 6 21 15 7z
m272 -26 c2 -22 -2 -32 -12 -32 -18 0 -19 9 -4 24 8 8 8 13 0 17 -15 10 -14
23 2 23 6 0 13 -15 14 -32z m133 3 c0 -5 -7 -8 -15 -8 -15 0 -20 21 -8 33 7 7
23 -11 23 -25z m105 23 c3 -5 1 -12 -5 -16 -5 -3 -10 1 -10 9 0 18 6 21 15 7z
m-1127 -19 c2 -7 -6 -12 -17 -12 -21 0 -27 11 -14 24 9 9 26 2 31 -12z m766 3
c4 -10 -1 -15 -14 -15 -20 0 -26 11 -13 23 10 11 20 8 27 -8z m-851 -26 c-5
-18 -6 -19 -19 -2 -19 25 -17 32 5 26 13 -3 17 -11 14 -24z m157 22 c0 -5 -7
-14 -16 -22 -13 -10 -17 -10 -25 2 -14 23 -11 29 16 29 14 0 25 -4 25 -9z
m110 -1 c0 -3 -7 -13 -14 -23 -12 -16 -14 -16 -20 -1 -10 25 -7 30 14 30 11 0
20 -3 20 -6z m150 6 c0 -11 -33 -36 -41 -31 -19 12 -9 35 16 35 14 0 25 -2 25
-4z m243 -3 c7 -7 -11 -33 -23 -33 -4 0 -10 9 -13 20 -4 14 0 20 12 20 10 0
21 -3 24 -7z m101 1 c12 -5 13 -10 5 -26 -9 -17 -13 -18 -20 -7 -9 15 -12 39
-5 39 2 0 11 -3 20 -6z m262 -31 c-8 -15 -15 -23 -16 -16 0 6 -3 18 -6 26 -3
10 1 17 13 19 26 6 26 3 9 -29z m154 28 c0 -5 -6 -14 -14 -20 -12 -10 -17 -8
-26 8 -9 19 -8 21 15 21 14 0 25 -4 25 -9z m-963 -37 c-2 -2 -12 -2 -21 2 -13
5 -14 9 -5 21 11 12 14 12 22 -2 5 -9 7 -19 4 -21z m250 -1 c-3 -3 -11 -2 -17
2 -8 5 -7 11 2 22 12 15 13 14 16 -1 2 -10 1 -20 -1 -23z m52 20 c-7 -10 -14
-20 -15 -21 -1 -2 -7 6 -14 17 -10 19 -8 21 16 21 24 0 25 -2 13 -17z m211
-15 c0 -5 -7 -8 -15 -8 -15 0 -20 21 -8 33 7 7 23 -11 23 -25z m-630 8 c0 -3
-4 -8 -10 -11 -5 -3 -10 -1 -10 4 0 6 5 11 10 11 6 0 10 -2 10 -4z m260 -5 c0
-6 -4 -13 -10 -16 -5 -3 -10 -1 -10 6 0 8 -6 6 -18 -4 -23 -21 -32 -21 -32 -3
0 13 17 20 58 25 6 0 12 -3 12 -8z m260 5 c0 -11 -19 -15 -25 -6 -3 5 1 10 9
10 9 0 16 -2 16 -4z m250 -5 c0 -17 -18 -21 -24 -6 -3 9 0 15 9 15 8 0 15 -4
15 -9z m255 0 c3 -5 1 -12 -4 -15 -5 -3 -11 1 -15 9 -6 16 9 21 19 6z m-1062
-16 c-6 -17 -25 -15 -31 3 -2 7 5 12 17 12 14 0 19 -5 14 -15z m97 -19 c-14
-14 -22 -2 -14 18 5 14 9 15 15 4 4 -7 4 -17 -1 -22z m260 14 c0 -11 -7 -20
-15 -20 -13 0 -14 4 -5 20 6 11 13 20 15 20 3 0 5 -9 5 -20z m158 8 c-6 -18
-25 -20 -31 -3 -5 10 0 15 14 15 12 0 19 -5 17 -12z m99 -3 c0 -8 -6 -16 -14
-19 -15 -6 -15 -4 -7 18 8 20 21 21 21 1z m153 8 c0 -10 -20 -40 -20 -31 0 3
-3 13 -6 22 -4 11 -1 16 10 16 9 0 16 -3 16 -7z m258 -4 c-2 -6 -8 -10 -13
-10 -5 0 -11 4 -13 10 -2 6 4 11 13 11 9 0 15 -5 13 -11z m-1059 -41 c1 -5 -8
-8 -19 -8 -23 0 -24 3 -8 30 12 18 13 19 20 2 3 -9 7 -20 7 -24z m1161 33 c0
-5 -7 -11 -15 -15 -15 -5 -20 5 -8 17 9 10 23 9 23 -2z m-906 -17 c10 -27 7
-31 -18 -27 -22 4 -23 8 -13 24 14 23 23 24 31 3z m256 -4 c9 -18 8 -20 -15
-20 -23 0 -24 2 -15 20 6 11 13 20 15 20 2 0 9 -9 15 -20z m255 3 c9 -24 5
-29 -19 -24 -12 2 -28 4 -35 6 -8 1 -17 7 -19 14 -3 10 0 10 17 2 17 -10 22
-9 27 4 8 20 20 19 29 -2z m258 -3 c4 -16 0 -20 -19 -20 -22 0 -23 2 -12 20 7
11 16 20 19 20 4 0 9 -9 12 -20z m-949 -12 c-9 -31 -11 -33 -29 -18 -20 16
-19 27 3 33 31 8 33 7 26 -15z m86 -12 c-15 -15 -33 4 -19 20 10 12 14 12 20
2 5 -7 4 -17 -1 -22z m40 24 c0 -5 -4 -10 -10 -10 -5 0 -10 5 -10 10 0 6 5 10
10 10 6 0 10 -4 10 -10z m128 -15 c-3 -28 -8 -31 -26 -13 -17 17 -15 26 6 31
9 3 18 5 19 6 2 0 2 -10 1 -24z m132 15 c0 -5 -5 -10 -11 -10 -5 0 -7 5 -4 10
3 6 8 10 11 10 2 0 4 -4 4 -10z m124 -12 c-9 -32 -11 -32 -29 -15 -14 14 -14
17 2 26 28 16 35 13 27 -11z m93 -14 c-2 -2 -12 -2 -21 2 -13 5 -14 9 -5 21
11 12 14 12 22 -2 5 -9 7 -19 4 -21z m167 14 c-9 -31 -11 -33 -29 -18 -20 16
-19 27 3 33 31 8 33 7 26 -15z m126 12 c0 -5 -7 -7 -15 -4 -8 4 -15 8 -15 10
0 2 7 4 15 4 8 0 15 -4 15 -10z m123 -24 c-7 -12 -11 -12 -27 0 -18 13 -18 14
5 23 26 9 35 0 22 -23z m97 14 c0 -22 -1 -23 -24 -14 -13 5 -14 9 -5 20 16 20
29 17 29 -6z m-770 -5 c0 -8 -4 -15 -9 -15 -13 0 -22 16 -14 24 11 11 23 6 23
-9z m-53 -27 c-3 -8 -6 -5 -6 6 -1 11 2 17 5 13 3 -3 4 -12 1 -19z m260 -24
c-2 -3 -12 -2 -21 2 -16 6 -16 8 1 24 17 16 18 16 21 -2 2 -11 2 -22 -1 -24z
m510 0 c-2 -3 -12 -2 -21 2 -16 6 -16 8 1 26 18 20 18 20 21 -2 2 -12 2 -24
-1 -26z m-1027 2 c-15 -15 -33 4 -19 20 10 12 14 12 20 2 5 -7 4 -17 -1 -22z
m178 3 c-16 -10 -33 5 -23 21 5 8 11 8 21 -1 12 -10 12 -14 2 -20z m602 -1 c0
-5 -5 -8 -11 -8 -5 0 -7 5 -3 11 4 8 -1 9 -17 5 -23 -7 -23 -7 -5 8 16 13 22
13 28 3 4 -6 8 -15 8 -19z m-910 1 c0 -5 -4 -9 -10 -9 -5 0 -10 7 -10 16 0 8
5 12 10 9 6 -3 10 -10 10 -16z m220 -11 c0 -5 -8 -8 -18 -8 -24 0 -42 -19 -35
-36 4 -10 0 -12 -11 -8 -21 8 -21 10 17 48 29 29 46 31 47 4z m45 10 c5 -4 0
-6 -12 -6 -13 1 -19 7 -16 15 3 8 8 10 12 6 3 -4 10 -11 16 -15z m208 2 c4
-15 0 -20 -14 -20 -21 0 -22 1 -13 24 8 22 21 20 27 -4z m37 -10 c-18 -11 -24
-6 -16 16 5 14 9 15 19 5 9 -9 9 -14 -3 -21z m54 21 c3 -5 -1 -11 -9 -14 -9
-4 -12 -1 -8 9 6 16 10 17 17 5z m166 -17 c0 -8 -7 -14 -15 -14 -17 0 -18 2
-9 24 7 18 24 12 24 -10z m34 -7 c-21 -12 -30 -1 -14 18 10 13 15 13 21 3 5
-8 2 -16 -7 -21z m60 12 c-8 -14 -24 -10 -24 6 0 9 6 12 15 9 8 -4 12 -10 9
-15z m111 12 c3 -5 1 -12 -5 -16 -5 -3 -10 1 -10 9 0 18 6 21 15 7z m51 -28
c-3 -3 -13 -3 -22 1 -13 5 -14 9 -3 22 11 14 13 14 22 -1 5 -9 6 -19 3 -22z
m44 16 c0 -5 -7 -9 -15 -9 -15 0 -20 12 -9 23 8 8 24 -1 24 -14z m50 0 c0 -5
-4 -9 -10 -9 -5 0 -10 7 -10 16 0 8 5 12 10 9 6 -3 10 -10 10 -16z m-1020 7
c0 -3 -4 -8 -10 -11 -5 -3 -10 -1 -10 4 0 6 5 11 10 11 6 0 10 -2 10 -4z m115
-6 c-3 -5 -10 -10 -16 -10 -5 0 -9 5 -9 10 0 6 7 10 16 10 8 0 12 -4 9 -10z
m195 0 c0 -5 -2 -10 -4 -10 -3 0 -8 5 -11 10 -3 6 -1 10 4 10 6 0 11 -4 11
-10z m60 6 c0 -3 -4 -8 -10 -11 -5 -3 -10 -1 -10 4 0 6 5 11 10 11 6 0 10 -2
10 -4z m257 -2 c-3 -3 -12 -4 -19 -1 -8 3 -5 6 6 6 11 1 17 -2 13 -5z m-667
-44 c0 -11 -4 -20 -9 -20 -11 0 -22 26 -14 34 12 12 23 5 23 -14z m99 -6 c-16
-20 -29 -17 -29 5 0 14 5 18 20 14 16 -4 18 -8 9 -19z m154 0 c-6 -17 -23 -9
-23 11 0 8 6 12 14 9 8 -3 12 -12 9 -20z m91 20 c20 -8 21 -20 2 -27 -8 -3
-16 2 -19 14 -6 21 -5 22 17 13z m266 -14 c0 -5 -4 -12 -10 -15 -5 -3 -10 -4
-10 -1 0 2 -3 12 -6 20 -5 12 -2 15 10 10 9 -3 16 -10 16 -14z m160 0 c0 -5
-4 -12 -10 -15 -5 -3 -10 -4 -10 -1 0 2 -3 12 -6 20 -5 12 -2 15 10 10 9 -3
16 -10 16 -14z m97 -3 c-6 -20 -27 -19 -27 2 0 14 5 19 15 14 9 -3 14 -10 12
-16z m49 -25 c-4 -3 -11 -1 -18 6 -8 8 -8 15 3 28 13 16 14 16 17 -5 2 -13 1
-25 -2 -29z m107 22 c-8 -21 -23 -17 -23 6 0 13 5 18 14 14 8 -3 12 -12 9 -20z
m95 17 c10 -6 10 -10 -3 -21 -8 -7 -15 -10 -15 -7 0 3 -3 12 -6 21 -7 17 3 20
24 7z m-708 -27 c0 -16 -2 -16 -24 -8 -13 5 -14 9 -5 20 13 16 29 9 29 -12z
m102 14 c-9 -9 -15 -9 -24 0 -9 9 -7 12 12 12 19 0 21 -3 12 -12z m48 -9 c0
-5 -7 -9 -15 -9 -9 0 -12 6 -9 15 6 15 24 11 24 -6z m100 1 c0 -13 -5 -18 -15
-14 -16 7 -19 17 -8 27 12 13 23 7 23 -13z m153 -13 c-3 -5 -10 -4 -15 1 -6 6
-7 16 -3 22 6 9 9 9 16 -1 4 -7 5 -17 2 -22z m359 11 c-3 -12 -7 -17 -10 -10
-2 7 -8 10 -13 6 -5 -3 -9 -1 -9 5 0 5 8 12 18 14 9 3 18 5 19 6 0 0 -1 -9 -5
-21z m-1126 -6 c1 -7 0 -8 -3 -2 -2 5 -9 8 -14 4 -5 -3 -9 0 -9 6 0 15 23 7
26 -8z m158 9 c3 -5 -1 -14 -9 -21 -13 -10 -15 -9 -15 9 0 21 14 28 24 12z
m96 -1 c0 -5 -7 -10 -16 -10 -8 0 -12 5 -9 10 3 6 10 10 16 10 5 0 9 -4 9 -10z
m164 2 c2 -4 0 -14 -5 -22 -8 -13 -10 -13 -18 0 -10 15 -6 30 9 30 5 0 11 -4
14 -8z m255 -1 c11 -7 10 -11 -7 -20 -16 -9 -21 -7 -25 9 -5 21 8 26 32 11z
m245 3 c8 -3 12 -12 9 -20 -7 -20 -20 -17 -26 6 -6 22 -5 23 17 14z m111 -3
c3 -6 -3 -9 -14 -8 -11 0 -17 5 -15 9 7 11 22 10 29 -1z m-1095 -52 c0 -3 -7
-6 -15 -6 -17 0 -17 0 -9 22 5 13 8 14 15 3 5 -7 9 -16 9 -19z m140 16 c10
-12 10 -15 -4 -15 -9 0 -16 7 -16 15 0 8 2 15 4 15 2 0 9 -7 16 -15z m114 -1
c8 -21 1 -28 -18 -21 -9 4 -13 13 -10 22 8 20 20 19 28 -1z m144 -2 c2 -7 -3
-12 -12 -12 -9 0 -16 7 -16 16 0 17 22 14 28 -4z m112 -8 c0 -8 -7 -14 -15
-14 -17 0 -18 2 -9 24 7 18 24 12 24 -10z m144 11 c3 -9 0 -15 -9 -15 -8 0
-15 7 -15 15 0 8 4 15 9 15 5 0 11 -7 15 -15z m109 1 c3 -8 -1 -17 -9 -20 -9
-4 -14 1 -14 14 0 23 15 27 23 6z m147 -7 c0 -5 -7 -9 -15 -9 -9 0 -12 6 -9
15 6 15 24 11 24 -6z m110 -5 c0 -8 -7 -14 -15 -14 -17 0 -18 2 -9 24 7 18 24
12 24 -10z m148 8 c2 -7 -3 -12 -12 -12 -9 0 -16 7 -16 16 0 17 22 14 28 -4z
m-1128 -13 c0 -6 -4 -7 -10 -4 -5 3 -10 11 -10 16 0 6 5 7 10 4 6 -3 10 -11
10 -16z m580 17 c0 -3 -4 -8 -10 -11 -5 -3 -10 -1 -10 4 0 6 5 11 10 11 6 0
10 -2 10 -4z m250 -6 c0 -5 -5 -10 -11 -10 -5 0 -7 5 -4 10 3 6 8 10 11 10 2
0 4 -4 4 -10z m-580 -10 c0 -5 -2 -10 -4 -10 -3 0 -8 5 -11 10 -3 6 -1 10 4
10 6 0 11 -4 11 -10z m400 -10 c0 -5 -4 -10 -10 -10 -5 0 -10 5 -10 10 0 6 5
10 10 10 6 0 10 -4 10 -10z"/>
</g>
</svg>
